<svg xmlns="http://www.w3.org/2000/svg" viewBox="0 0 29.5 56.5"><g id="Layer_2" data-name="Layer 2"><g id="_2" data-name="2"><polygon points="25 4.25 25 4.11 24.72 4.11 24.44 4.11 24.17 4.11 24.17 3.83 23.89 3.83 23.89 3.56 23.89 3.28 23.89 3 23.75 3 23.75 4.11 23.89 4.11 23.89 4.25 25 4.25" fill="#fff"/><rect x="24.17" y="3.56" width="0.28" height="0.28" fill="#fff"/><rect x="24.44" y="3.28" width="0.28" height="0.28" fill="#fff"/><path d="M28.94,1.39h.56V1.11h-.83V.83h-.28V0h-.28V.83h-.28v.28H27v.28h.83v.28h.28V2.5h.28V1.67h.28V1.39Zm-.55,0h-.28V1.11h.28Z" fill="#fff"/><rect x="27.56" y="0.56" width="0.28" height="0.28" fill="#fff"/><rect x="27.28" y="0.28" width="0.28" height="0.28" fill="#fff"/><rect x="28.67" y="0.56" width="0.28" height="0.28" fill="#fff"/><rect x="28.94" y="0.28" width="0.28" height="0.28" fill="#fff"/><rect x="28.67" y="1.67" width="0.28" height="0.28" fill="#fff"/><rect x="28.94" y="1.94" width="0.28" height="0.28" fill="#fff"/><rect x="27.56" y="1.67" width="0.28" height="0.28" fill="#fff"/><rect x="27.28" y="1.94" width="0.28" height="0.28" fill="#fff"/><polygon points="25 10.25 25 10.11 24.72 10.11 24.44 10.11 24.17 10.11 24.17 9.83 23.89 9.83 23.89 9.56 23.89 9.28 23.89 9 23.75 9 23.75 10.11 23.89 10.11 23.89 10.25 25 10.25" fill="#fff"/><rect x="24.17" y="9.56" width="0.28" height="0.28" fill="#fff"/><rect x="24.44" y="9.28" width="0.28" height="0.28" fill="#fff"/><path d="M28.94,7.39h.56V7.11h-.83V6.83h-.28V6h-.28v.83h-.28v.28H27v.28h.83v.28h.28V8.5h.28V7.67h.28V7.39Zm-.55,0h-.28V7.11h.28Z" fill="#fff"/><rect x="27.56" y="6.56" width="0.28" height="0.28" fill="#fff"/><rect x="27.28" y="6.28" width="0.28" height="0.28" fill="#fff"/><rect x="28.67" y="6.56" width="0.28" height="0.28" fill="#fff"/><rect x="28.94" y="6.28" width="0.28" height="0.28" fill="#fff"/><rect x="28.67" y="7.67" width="0.28" height="0.28" fill="#fff"/><rect x="28.94" y="7.94" width="0.28" height="0.28" fill="#fff"/><rect x="27.56" y="7.67" width="0.28" height="0.28" fill="#fff"/><rect x="27.28" y="7.94" width="0.28" height="0.28" fill="#fff"/><polygon points="24.44 4.39 24.72 4.39 25 4.39 25 4.25 23.89 4.25 23.89 4.39 23.75 4.39 23.75 5.5 23.89 5.5 23.89 5.22 23.89 4.94 23.89 4.67 24.17 4.67 24.17 4.39 24.44 4.39" fill="#fff"/><rect x="24.17" y="4.67" width="0.28" height="0.28" fill="#fff"/><rect x="24.44" y="4.94" width="0.28" height="0.28" fill="#fff"/><polygon points="25 16.25 25 16.11 24.72 16.11 24.44 16.11 24.17 16.11 24.17 15.83 23.89 15.83 23.89 15.56 23.89 15.28 23.89 15 23.75 15 23.75 16.11 23.89 16.11 23.89 16.25 25 16.25" fill="#fff"/><rect x="24.17" y="15.56" width="0.28" height="0.28" fill="#fff"/><rect x="24.44" y="15.28" width="0.28" height="0.28" fill="#fff"/><path d="M28.94,13.39h.56v-.28h-.83v-.28h-.28V12h-.28v.83h-.28v.28H27v.28h.83v.28h.28v.83h.28v-.83h.28v-.28Zm-.55,0h-.28v-.28h.28Z" fill="#fff"/><rect x="27.56" y="12.56" width="0.28" height="0.28" fill="#fff"/><rect x="27.28" y="12.28" width="0.28" height="0.28" fill="#fff"/><rect x="28.67" y="12.56" width="0.28" height="0.28" fill="#fff"/><rect x="28.94" y="12.28" width="0.28" height="0.28" fill="#fff"/><rect x="28.67" y="13.67" width="0.28" height="0.28" fill="#fff"/><rect x="28.94" y="13.94" width="0.28" height="0.28" fill="#fff"/><rect x="27.56" y="13.67" width="0.28" height="0.28" fill="#fff"/><rect x="27.28" y="13.94" width="0.28" height="0.28" fill="#fff"/><polygon points="24.44 10.39 24.72 10.39 25 10.39 25 10.25 23.89 10.25 23.89 10.39 23.75 10.39 23.75 11.5 23.89 11.5 23.89 11.22 23.89 10.94 23.89 10.67 24.17 10.67 24.17 10.39 24.44 10.39" fill="#fff"/><rect x="24.17" y="10.67" width="0.28" height="0.28" fill="#fff"/><rect x="24.44" y="10.94" width="0.28" height="0.28" fill="#fff"/><polygon points="25 22.25 25 22.11 24.72 22.11 24.44 22.11 24.17 22.11 24.17 21.83 23.89 21.83 23.89 21.56 23.89 21.28 23.89 21 23.75 21 23.75 22.11 23.89 22.11 23.89 22.25 25 22.25" fill="#fff"/><rect x="24.17" y="21.56" width="0.28" height="0.28" fill="#fff"/><rect x="24.44" y="21.28" width="0.28" height="0.28" fill="#fff"/><path d="M28.94,19.39h.56v-.28h-.83v-.28h-.28V18h-.28v.83h-.28v.28H27v.28h.83v.28h.28v.83h.28v-.83h.28v-.28Zm-.55,0h-.28v-.28h.28Z" fill="#fff"/><rect x="27.56" y="18.56" width="0.28" height="0.28" fill="#fff"/><rect x="27.28" y="18.28" width="0.28" height="0.28" fill="#fff"/><rect x="28.67" y="18.56" width="0.28" height="0.28" fill="#fff"/><rect x="28.94" y="18.28" width="0.28" height="0.28" fill="#fff"/><rect x="28.67" y="19.67" width="0.28" height="0.28" fill="#fff"/><rect x="28.94" y="19.94" width="0.28" height="0.28" fill="#fff"/><rect x="27.56" y="19.67" width="0.28" height="0.28" fill="#fff"/><rect x="27.28" y="19.94" width="0.28" height="0.28" fill="#fff"/><polygon points="24.44 16.39 24.72 16.39 25 16.39 25 16.25 23.89 16.25 23.89 16.39 23.75 16.39 23.75 17.5 23.89 17.5 23.89 17.22 23.89 16.94 23.89 16.67 24.17 16.67 24.17 16.39 24.44 16.39" fill="#fff"/><rect x="24.17" y="16.67" width="0.28" height="0.28" fill="#fff"/><rect x="24.44" y="16.94" width="0.28" height="0.28" fill="#fff"/><polygon points="25 28.25 25 28.11 24.72 28.11 24.44 28.11 24.17 28.11 24.17 27.83 23.89 27.83 23.89 27.56 23.89 27.28 23.89 27 23.75 27 23.75 28.11 23.89 28.11 23.89 28.25 25 28.25" fill="#fff"/><rect x="24.17" y="27.56" width="0.28" height="0.28" fill="#fff"/><rect x="24.44" y="27.28" width="0.28" height="0.28" fill="#fff"/><path d="M28.94,25.39h.56v-.28h-.83v-.28h-.28V24h-.28v.83h-.28v.28H27v.28h.83v.28h.28v.83h.28v-.83h.28v-.28Zm-.55,0h-.28v-.28h.28Z" fill="#fff"/><rect x="27.56" y="24.56" width="0.28" height="0.28" fill="#fff"/><rect x="27.28" y="24.28" width="0.28" height="0.28" fill="#fff"/><rect x="28.67" y="24.56" width="0.28" height="0.28" fill="#fff"/><rect x="28.94" y="24.28" width="0.28" height="0.28" fill="#fff"/><rect x="28.67" y="25.67" width="0.28" height="0.28" fill="#fff"/><rect x="28.94" y="25.94" width="0.28" height="0.28" fill="#fff"/><rect x="27.56" y="25.67" width="0.28" height="0.28" fill="#fff"/><rect x="27.28" y="25.94" width="0.28" height="0.28" fill="#fff"/><polygon points="24.44 22.39 24.72 22.39 25 22.39 25 22.25 23.89 22.25 23.89 22.39 23.75 22.39 23.75 23.5 23.89 23.5 23.89 23.22 23.89 22.94 23.89 22.67 24.17 22.67 24.17 22.39 24.44 22.39" fill="#fff"/><rect x="24.17" y="22.67" width="0.28" height="0.28" fill="#fff"/><rect x="24.44" y="22.94" width="0.28" height="0.28" fill="#fff"/><polygon points="25 34.25 25 34.11 24.72 34.11 24.44 34.11 24.17 34.11 24.17 33.83 23.89 33.83 23.89 33.56 23.89 33.28 23.89 33 23.75 33 23.75 34.11 23.89 34.11 23.89 34.25 25 34.25" fill="#fff"/><rect x="24.17" y="33.56" width="0.28" height="0.28" fill="#fff"/><rect x="24.44" y="33.28" width="0.28" height="0.28" fill="#fff"/><path d="M28.94,31.39h.56v-.28h-.83v-.28h-.28V30h-.28v.83h-.28v.28H27v.28h.83v.28h.28v.83h.28v-.83h.28v-.28Zm-.55,0h-.28v-.28h.28Z" fill="#fff"/><rect x="27.56" y="30.56" width="0.28" height="0.28" fill="#fff"/><rect x="27.28" y="30.28" width="0.28" height="0.28" fill="#fff"/><rect x="28.67" y="30.56" width="0.28" height="0.28" fill="#fff"/><rect x="28.94" y="30.28" width="0.28" height="0.28" fill="#fff"/><rect x="28.67" y="31.67" width="0.28" height="0.28" fill="#fff"/><rect x="28.94" y="31.94" width="0.28" height="0.28" fill="#fff"/><rect x="27.56" y="31.67" width="0.28" height="0.28" fill="#fff"/><rect x="27.28" y="31.94" width="0.28" height="0.28" fill="#fff"/><polygon points="24.44 28.39 24.72 28.39 25 28.39 25 28.25 23.89 28.25 23.89 28.39 23.75 28.39 23.75 29.5 23.89 29.5 23.89 29.22 23.89 28.94 23.89 28.67 24.17 28.67 24.17 28.39 24.44 28.39" fill="#fff"/><rect x="24.17" y="28.67" width="0.28" height="0.28" fill="#fff"/><rect x="24.44" y="28.94" width="0.28" height="0.28" fill="#fff"/><polygon points="25 40.25 25 40.11 24.72 40.11 24.44 40.11 24.17 40.11 24.17 39.83 23.89 39.83 23.89 39.56 23.89 39.28 23.89 39 23.75 39 23.75 40.11 23.89 40.11 23.89 40.25 25 40.25" fill="#fff"/><rect x="24.17" y="39.56" width="0.28" height="0.28" fill="#fff"/><rect x="24.44" y="39.28" width="0.28" height="0.28" fill="#fff"/><path d="M28.94,37.39h.56v-.28h-.83v-.28h-.28V36h-.28v.83h-.28v.28H27v.28h.83v.28h.28v.83h.28v-.83h.28v-.28Zm-.55,0h-.28v-.28h.28Z" fill="#fff"/><rect x="27.56" y="36.56" width="0.28" height="0.28" fill="#fff"/><rect x="27.28" y="36.28" width="0.28" height="0.28" fill="#fff"/><rect x="28.67" y="36.56" width="0.28" height="0.28" fill="#fff"/><rect x="28.94" y="36.28" width="0.28" height="0.28" fill="#fff"/><rect x="28.67" y="37.67" width="0.28" height="0.28" fill="#fff"/><rect x="28.94" y="37.94" width="0.28" height="0.28" fill="#fff"/><rect x="27.56" y="37.67" width="0.28" height="0.28" fill="#fff"/><rect x="27.28" y="37.94" width="0.28" height="0.28" fill="#fff"/><polygon points="24.44 34.39 24.72 34.39 25 34.39 25 34.25 23.89 34.25 23.89 34.39 23.75 34.39 23.75 35.5 23.89 35.5 23.89 35.22 23.89 34.94 23.89 34.67 24.17 34.67 24.17 34.39 24.44 34.39" fill="#fff"/><rect x="24.17" y="34.67" width="0.28" height="0.28" fill="#fff"/><rect x="24.44" y="34.94" width="0.28" height="0.28" fill="#fff"/><polygon points="25 46.25 25 46.11 24.72 46.11 24.44 46.11 24.17 46.11 24.17 45.83 23.89 45.83 23.89 45.56 23.89 45.28 23.89 45 23.75 45 23.75 46.11 23.89 46.11 23.89 46.25 25 46.25" fill="#fff"/><rect x="24.17" y="45.56" width="0.28" height="0.28" fill="#fff"/><rect x="24.44" y="45.28" width="0.28" height="0.28" fill="#fff"/><path d="M28.94,43.39h.56v-.28h-.83v-.28h-.28V42h-.28v.83h-.28v.28H27v.28h.83v.28h.28v.83h.28v-.83h.28v-.28Zm-.55,0h-.28v-.28h.28Z" fill="#fff"/><rect x="27.56" y="42.56" width="0.28" height="0.28" fill="#fff"/><rect x="27.28" y="42.28" width="0.28" height="0.28" fill="#fff"/><rect x="28.67" y="42.56" width="0.28" height="0.28" fill="#fff"/><rect x="28.94" y="42.28" width="0.28" height="0.28" fill="#fff"/><rect x="28.67" y="43.67" width="0.28" height="0.28" fill="#fff"/><rect x="28.94" y="43.94" width="0.28" height="0.28" fill="#fff"/><rect x="27.56" y="43.67" width="0.28" height="0.28" fill="#fff"/><rect x="27.28" y="43.94" width="0.28" height="0.28" fill="#fff"/><polygon points="24.44 40.39 24.72 40.39 25 40.39 25 40.25 23.89 40.25 23.89 40.39 23.75 40.39 23.75 41.5 23.89 41.5 23.89 41.22 23.89 40.94 23.89 40.67 24.17 40.67 24.17 40.39 24.44 40.39" fill="#fff"/><rect x="24.17" y="40.67" width="0.28" height="0.28" fill="#fff"/><rect x="24.44" y="40.94" width="0.28" height="0.28" fill="#fff"/><polygon points="25 52.25 25 52.11 24.72 52.11 24.44 52.11 24.17 52.11 24.17 51.83 23.89 51.83 23.89 51.56 23.89 51.28 23.89 51 23.75 51 23.75 52.11 23.89 52.11 23.89 52.25 25 52.25" fill="#fff"/><rect x="24.17" y="51.56" width="0.28" height="0.28" fill="#fff"/><rect x="24.44" y="51.28" width="0.28" height="0.28" fill="#fff"/><path d="M28.94,49.39h.56v-.28h-.83v-.28h-.28V48h-.28v.83h-.28v.28H27v.28h.83v.28h.28v.83h.28v-.83h.28v-.28Zm-.55,0h-.28v-.28h.28Z" fill="#fff"/><rect x="27.56" y="48.56" width="0.28" height="0.28" fill="#fff"/><rect x="27.28" y="48.28" width="0.28" height="0.28" fill="#fff"/><rect x="28.67" y="48.56" width="0.28" height="0.28" fill="#fff"/><rect x="28.94" y="48.28" width="0.28" height="0.28" fill="#fff"/><rect x="28.67" y="49.67" width="0.28" height="0.28" fill="#fff"/><rect x="28.94" y="49.94" width="0.28" height="0.28" fill="#fff"/><rect x="27.56" y="49.67" width="0.28" height="0.28" fill="#fff"/><rect x="27.28" y="49.94" width="0.28" height="0.28" fill="#fff"/><polygon points="24.44 46.39 24.72 46.39 25 46.39 25 46.25 23.89 46.25 23.89 46.39 23.75 46.39 23.75 47.5 23.89 47.5 23.89 47.22 23.89 46.94 23.89 46.67 24.17 46.67 24.17 46.39 24.44 46.39" fill="#fff"/><rect x="24.17" y="46.67" width="0.28" height="0.28" fill="#fff"/><rect x="24.44" y="46.94" width="0.28" height="0.28" fill="#fff"/><path d="M28.94,55.39h.56v-.28h-.83v-.28h-.28V54h-.28v.83h-.28v.28H27v.28h.83v.28h.28v.83h.28v-.83h.28v-.28Zm-.55,0h-.28v-.28h.28Z" fill="#fff"/><rect x="27.56" y="54.56" width="0.28" height="0.28" fill="#fff"/><rect x="27.28" y="54.28" width="0.28" height="0.28" fill="#fff"/><rect x="28.67" y="54.56" width="0.28" height="0.28" fill="#fff"/><rect x="28.94" y="54.28" width="0.28" height="0.28" fill="#fff"/><rect x="28.67" y="55.67" width="0.28" height="0.28" fill="#fff"/><rect x="28.94" y="55.94" width="0.28" height="0.28" fill="#fff"/><rect x="27.56" y="55.67" width="0.28" height="0.28" fill="#fff"/><rect x="27.28" y="55.94" width="0.28" height="0.28" fill="#fff"/><polygon points="24.44 52.39 24.72 52.39 25 52.39 25 52.25 23.89 52.25 23.89 52.39 23.75 52.39 23.75 53.5 23.89 53.5 23.89 53.22 23.89 52.94 23.89 52.67 24.17 52.67 24.17 52.39 24.44 52.39" fill="#fff"/><rect x="24.17" y="52.67" width="0.28" height="0.28" fill="#fff"/><rect x="24.44" y="52.94" width="0.28" height="0.28" fill="#fff"/><polygon points="23.61 4.11 23.75 4.11 23.75 3 23.61 3 23.61 3.28 23.61 3.56 23.61 3.83 23.33 3.83 23.33 4.11 23.05 4.11 22.78 4.11 22.5 4.11 22.5 4.25 23.61 4.25 23.61 4.11" fill="#fff"/><rect x="23.06" y="3.56" width="0.28" height="0.28" fill="#fff"/><rect x="22.78" y="3.28" width="0.28" height="0.28" fill="#fff"/><polygon points="16 4.25 16 4.11 15.72 4.11 15.44 4.11 15.17 4.11 15.17 3.83 14.89 3.83 14.89 3.56 14.89 3.28 14.89 3 14.75 3 14.75 4.11 14.89 4.11 14.89 4.25 16 4.25" fill="#fff"/><rect x="15.17" y="3.56" width="0.28" height="0.28" fill="#fff"/><rect x="15.44" y="3.28" width="0.28" height="0.28" fill="#fff"/><path d="M19.94,1.39h.56V1.11h-.83V.83h-.28V0h-.28V.83h-.28v.28H18v.28h.83v.28h.28V2.5h.28V1.67h.28V1.39Zm-.55,0h-.28V1.11h.28Z" fill="#fff"/><rect x="18.56" y="0.56" width="0.28" height="0.28" fill="#fff"/><rect x="18.28" y="0.28" width="0.28" height="0.28" fill="#fff"/><rect x="19.67" y="0.56" width="0.28" height="0.28" fill="#fff"/><rect x="19.94" y="0.28" width="0.28" height="0.28" fill="#fff"/><rect x="19.67" y="1.67" width="0.28" height="0.28" fill="#fff"/><rect x="19.94" y="1.94" width="0.28" height="0.28" fill="#fff"/><rect x="18.56" y="1.67" width="0.28" height="0.28" fill="#fff"/><rect x="18.28" y="1.94" width="0.28" height="0.28" fill="#fff"/><polygon points="23.61 10.11 23.75 10.11 23.75 9 23.61 9 23.61 9.28 23.61 9.56 23.61 9.83 23.33 9.83 23.33 10.11 23.05 10.11 22.78 10.11 22.5 10.11 22.5 10.25 23.61 10.25 23.61 10.11" fill="#fff"/><rect x="23.06" y="9.56" width="0.28" height="0.28" fill="#fff"/><rect x="22.78" y="9.28" width="0.28" height="0.28" fill="#fff"/><polygon points="16 10.25 16 10.11 15.72 10.11 15.44 10.11 15.17 10.11 15.17 9.83 14.89 9.83 14.89 9.56 14.89 9.28 14.89 9 14.75 9 14.75 10.11 14.89 10.11 14.89 10.25 16 10.25" fill="#fff"/><rect x="15.17" y="9.56" width="0.28" height="0.28" fill="#fff"/><rect x="15.44" y="9.28" width="0.28" height="0.28" fill="#fff"/><polygon points="22.5 4.25 22.5 4.39 22.78 4.39 23.05 4.39 23.33 4.39 23.33 4.67 23.61 4.67 23.61 4.94 23.61 5.22 23.61 5.5 23.75 5.5 23.75 4.39 23.61 4.39 23.61 4.25 22.5 4.25" fill="#fff"/><rect x="23.06" y="4.67" width="0.28" height="0.28" fill="#fff"/><rect x="22.78" y="4.94" width="0.28" height="0.28" fill="#fff"/><path d="M19.94,7.39h.56V7.11h-.83V6.83h-.28V6h-.28v.83h-.28v.28H18v.28h.83v.28h.28V8.5h.28V7.67h.28V7.39Zm-.55,0h-.28V7.11h.28Z" fill="#fff"/><rect x="18.56" y="6.56" width="0.28" height="0.28" fill="#fff"/><rect x="18.28" y="6.28" width="0.28" height="0.28" fill="#fff"/><rect x="19.67" y="6.56" width="0.28" height="0.28" fill="#fff"/><rect x="19.94" y="6.28" width="0.28" height="0.28" fill="#fff"/><rect x="19.67" y="7.67" width="0.28" height="0.28" fill="#fff"/><rect x="19.94" y="7.94" width="0.28" height="0.28" fill="#fff"/><rect x="18.56" y="7.67" width="0.28" height="0.28" fill="#fff"/><rect x="18.28" y="7.94" width="0.28" height="0.28" fill="#fff"/><polygon points="15.44 4.39 15.72 4.39 16 4.39 16 4.25 14.89 4.25 14.89 4.39 14.75 4.39 14.75 5.5 14.89 5.5 14.89 5.22 14.89 4.94 14.89 4.67 15.17 4.67 15.17 4.39 15.44 4.39" fill="#fff"/><rect x="15.17" y="4.67" width="0.28" height="0.28" fill="#fff"/><rect x="15.44" y="4.94" width="0.28" height="0.28" fill="#fff"/><polygon points="23.61 16.11 23.75 16.11 23.75 15 23.61 15 23.61 15.28 23.61 15.56 23.61 15.83 23.33 15.83 23.33 16.11 23.05 16.11 22.78 16.11 22.5 16.11 22.5 16.25 23.61 16.25 23.61 16.11" fill="#fff"/><rect x="23.06" y="15.56" width="0.28" height="0.28" fill="#fff"/><rect x="22.78" y="15.28" width="0.28" height="0.28" fill="#fff"/><polygon points="16 16.25 16 16.11 15.72 16.11 15.44 16.11 15.17 16.11 15.17 15.83 14.89 15.83 14.89 15.56 14.89 15.28 14.89 15 14.75 15 14.75 16.11 14.89 16.11 14.89 16.25 16 16.25" fill="#fff"/><rect x="15.17" y="15.56" width="0.28" height="0.28" fill="#fff"/><rect x="15.44" y="15.28" width="0.28" height="0.28" fill="#fff"/><polygon points="22.5 10.25 22.5 10.39 22.78 10.39 23.05 10.39 23.33 10.39 23.33 10.67 23.61 10.67 23.61 10.94 23.61 11.22 23.61 11.5 23.75 11.5 23.75 10.39 23.61 10.39 23.61 10.25 22.5 10.25" fill="#fff"/><rect x="23.06" y="10.67" width="0.28" height="0.28" fill="#fff"/><rect x="22.78" y="10.94" width="0.28" height="0.28" fill="#fff"/><path d="M19.94,13.39h.56v-.28h-.83v-.28h-.28V12h-.28v.83h-.28v.28H18v.28h.83v.28h.28v.83h.28v-.83h.28v-.28Zm-.55,0h-.28v-.28h.28Z" fill="#fff"/><rect x="18.56" y="12.56" width="0.28" height="0.28" fill="#fff"/><rect x="18.28" y="12.28" width="0.28" height="0.28" fill="#fff"/><rect x="19.67" y="12.56" width="0.28" height="0.28" fill="#fff"/><rect x="19.94" y="12.28" width="0.28" height="0.28" fill="#fff"/><rect x="19.67" y="13.67" width="0.28" height="0.28" fill="#fff"/><rect x="19.94" y="13.94" width="0.28" height="0.28" fill="#fff"/><rect x="18.56" y="13.67" width="0.28" height="0.28" fill="#fff"/><rect x="18.28" y="13.94" width="0.28" height="0.28" fill="#fff"/><polygon points="15.44 10.39 15.72 10.39 16 10.39 16 10.25 14.89 10.25 14.89 10.39 14.75 10.39 14.75 11.5 14.89 11.5 14.89 11.22 14.89 10.94 14.89 10.67 15.17 10.67 15.17 10.39 15.44 10.39" fill="#fff"/><rect x="15.17" y="10.67" width="0.28" height="0.28" fill="#fff"/><rect x="15.44" y="10.94" width="0.28" height="0.28" fill="#fff"/><polygon points="23.61 22.11 23.75 22.11 23.75 21 23.61 21 23.61 21.28 23.61 21.56 23.61 21.83 23.33 21.83 23.33 22.11 23.05 22.11 22.78 22.11 22.5 22.11 22.5 22.25 23.61 22.25 23.61 22.11" fill="#fff"/><rect x="23.06" y="21.56" width="0.28" height="0.28" fill="#fff"/><rect x="22.78" y="21.28" width="0.28" height="0.28" fill="#fff"/><polygon points="16 22.25 16 22.11 15.72 22.11 15.44 22.11 15.17 22.11 15.17 21.83 14.89 21.83 14.89 21.56 14.89 21.28 14.89 21 14.75 21 14.75 22.11 14.89 22.11 14.89 22.25 16 22.25" fill="#fff"/><rect x="15.17" y="21.56" width="0.28" height="0.28" fill="#fff"/><rect x="15.44" y="21.28" width="0.28" height="0.28" fill="#fff"/><polygon points="22.5 16.25 22.5 16.39 22.78 16.39 23.05 16.39 23.33 16.39 23.33 16.67 23.61 16.67 23.61 16.94 23.61 17.22 23.61 17.5 23.75 17.5 23.75 16.39 23.61 16.39 23.61 16.25 22.5 16.25" fill="#fff"/><rect x="23.06" y="16.67" width="0.28" height="0.28" fill="#fff"/><rect x="22.78" y="16.94" width="0.28" height="0.28" fill="#fff"/><path d="M19.94,19.39h.56v-.28h-.83v-.28h-.28V18h-.28v.83h-.28v.28H18v.28h.83v.28h.28v.83h.28v-.83h.28v-.28Zm-.55,0h-.28v-.28h.28Z" fill="#fff"/><rect x="18.56" y="18.56" width="0.28" height="0.28" fill="#fff"/><rect x="18.28" y="18.28" width="0.28" height="0.28" fill="#fff"/><rect x="19.67" y="18.56" width="0.28" height="0.28" fill="#fff"/><rect x="19.94" y="18.28" width="0.28" height="0.28" fill="#fff"/><rect x="19.67" y="19.67" width="0.28" height="0.28" fill="#fff"/><rect x="19.94" y="19.94" width="0.28" height="0.28" fill="#fff"/><rect x="18.56" y="19.67" width="0.28" height="0.28" fill="#fff"/><rect x="18.28" y="19.94" width="0.28" height="0.28" fill="#fff"/><polygon points="15.44 16.39 15.72 16.39 16 16.39 16 16.25 14.89 16.25 14.89 16.39 14.75 16.39 14.75 17.5 14.89 17.5 14.89 17.22 14.89 16.94 14.89 16.67 15.17 16.67 15.17 16.39 15.44 16.39" fill="#fff"/><rect x="15.17" y="16.67" width="0.28" height="0.28" fill="#fff"/><rect x="15.44" y="16.94" width="0.28" height="0.28" fill="#fff"/><polygon points="23.61 28.11 23.75 28.11 23.75 27 23.61 27 23.61 27.28 23.61 27.56 23.61 27.83 23.33 27.83 23.33 28.11 23.05 28.11 22.78 28.11 22.5 28.11 22.5 28.25 23.61 28.25 23.61 28.11" fill="#fff"/><rect x="23.06" y="27.56" width="0.28" height="0.28" fill="#fff"/><rect x="22.78" y="27.28" width="0.28" height="0.28" fill="#fff"/><polygon points="16 28.25 16 28.11 15.72 28.11 15.44 28.11 15.17 28.11 15.17 27.83 14.89 27.83 14.89 27.56 14.89 27.28 14.89 27 14.75 27 14.75 28.11 14.89 28.11 14.89 28.25 16 28.25" fill="#fff"/><rect x="15.17" y="27.56" width="0.28" height="0.28" fill="#fff"/><rect x="15.44" y="27.28" width="0.28" height="0.28" fill="#fff"/><polygon points="22.5 22.25 22.5 22.39 22.78 22.39 23.05 22.39 23.33 22.39 23.33 22.67 23.61 22.67 23.61 22.94 23.61 23.22 23.61 23.5 23.75 23.5 23.75 22.39 23.61 22.39 23.61 22.25 22.5 22.25" fill="#fff"/><rect x="23.06" y="22.67" width="0.28" height="0.28" fill="#fff"/><rect x="22.78" y="22.94" width="0.28" height="0.28" fill="#fff"/><path d="M19.94,25.39h.56v-.28h-.83v-.28h-.28V24h-.28v.83h-.28v.28H18v.28h.83v.28h.28v.83h.28v-.83h.28v-.28Zm-.55,0h-.28v-.28h.28Z" fill="#fff"/><rect x="18.56" y="24.56" width="0.28" height="0.28" fill="#fff"/><rect x="18.28" y="24.28" width="0.28" height="0.28" fill="#fff"/><rect x="19.67" y="24.56" width="0.28" height="0.28" fill="#fff"/><rect x="19.94" y="24.28" width="0.28" height="0.28" fill="#fff"/><rect x="19.67" y="25.67" width="0.28" height="0.28" fill="#fff"/><rect x="19.94" y="25.94" width="0.28" height="0.28" fill="#fff"/><rect x="18.56" y="25.67" width="0.28" height="0.28" fill="#fff"/><rect x="18.28" y="25.94" width="0.28" height="0.28" fill="#fff"/><polygon points="15.44 22.39 15.72 22.39 16 22.39 16 22.25 14.89 22.25 14.89 22.39 14.75 22.39 14.75 23.5 14.89 23.5 14.89 23.22 14.89 22.94 14.89 22.67 15.17 22.67 15.17 22.39 15.44 22.39" fill="#fff"/><rect x="15.17" y="22.67" width="0.28" height="0.28" fill="#fff"/><rect x="15.44" y="22.94" width="0.28" height="0.28" fill="#fff"/><polygon points="23.61 34.11 23.75 34.11 23.75 33 23.61 33 23.61 33.28 23.61 33.56 23.61 33.83 23.33 33.83 23.33 34.11 23.05 34.11 22.78 34.11 22.5 34.11 22.5 34.25 23.61 34.25 23.61 34.11" fill="#fff"/><rect x="23.06" y="33.56" width="0.28" height="0.28" fill="#fff"/><rect x="22.78" y="33.28" width="0.28" height="0.28" fill="#fff"/><polygon points="16 34.25 16 34.11 15.72 34.11 15.44 34.11 15.17 34.11 15.17 33.83 14.89 33.83 14.89 33.56 14.89 33.28 14.89 33 14.75 33 14.75 34.11 14.89 34.11 14.89 34.25 16 34.25" fill="#fff"/><rect x="15.17" y="33.56" width="0.28" height="0.28" fill="#fff"/><rect x="15.44" y="33.28" width="0.28" height="0.28" fill="#fff"/><polygon points="22.5 28.25 22.5 28.39 22.78 28.39 23.05 28.39 23.33 28.39 23.33 28.67 23.61 28.67 23.61 28.94 23.61 29.22 23.61 29.5 23.75 29.5 23.75 28.39 23.61 28.39 23.61 28.25 22.5 28.25" fill="#fff"/><rect x="23.06" y="28.67" width="0.28" height="0.28" fill="#fff"/><rect x="22.78" y="28.94" width="0.28" height="0.28" fill="#fff"/><path d="M19.94,31.39h.56v-.28h-.83v-.28h-.28V30h-.28v.83h-.28v.28H18v.28h.83v.28h.28v.83h.28v-.83h.28v-.28Zm-.55,0h-.28v-.28h.28Z" fill="#fff"/><rect x="18.56" y="30.56" width="0.28" height="0.28" fill="#fff"/><rect x="18.28" y="30.28" width="0.28" height="0.28" fill="#fff"/><rect x="19.67" y="30.56" width="0.28" height="0.28" fill="#fff"/><rect x="19.94" y="30.28" width="0.28" height="0.28" fill="#fff"/><rect x="19.67" y="31.67" width="0.28" height="0.28" fill="#fff"/><rect x="19.94" y="31.94" width="0.28" height="0.28" fill="#fff"/><rect x="18.56" y="31.67" width="0.28" height="0.28" fill="#fff"/><rect x="18.28" y="31.94" width="0.28" height="0.28" fill="#fff"/><polygon points="15.44 28.39 15.72 28.39 16 28.39 16 28.25 14.89 28.25 14.89 28.39 14.75 28.39 14.75 29.5 14.89 29.5 14.89 29.22 14.89 28.94 14.89 28.67 15.17 28.67 15.17 28.39 15.44 28.39" fill="#fff"/><rect x="15.17" y="28.67" width="0.28" height="0.28" fill="#fff"/><rect x="15.44" y="28.94" width="0.28" height="0.28" fill="#fff"/><polygon points="23.61 40.11 23.75 40.11 23.75 39 23.61 39 23.61 39.28 23.61 39.56 23.61 39.83 23.33 39.83 23.33 40.11 23.05 40.11 22.78 40.11 22.5 40.11 22.5 40.25 23.61 40.25 23.61 40.11" fill="#fff"/><rect x="23.06" y="39.56" width="0.28" height="0.28" fill="#fff"/><rect x="22.78" y="39.28" width="0.28" height="0.28" fill="#fff"/><polygon points="16 40.25 16 40.11 15.72 40.11 15.44 40.11 15.17 40.11 15.17 39.83 14.89 39.83 14.89 39.56 14.89 39.28 14.89 39 14.75 39 14.75 40.11 14.89 40.11 14.89 40.25 16 40.25" fill="#fff"/><rect x="15.17" y="39.56" width="0.28" height="0.28" fill="#fff"/><rect x="15.44" y="39.28" width="0.28" height="0.28" fill="#fff"/><polygon points="22.5 34.25 22.5 34.39 22.78 34.39 23.05 34.39 23.33 34.39 23.33 34.67 23.61 34.67 23.61 34.94 23.61 35.22 23.61 35.5 23.75 35.5 23.75 34.39 23.61 34.39 23.61 34.25 22.5 34.25" fill="#fff"/><rect x="23.06" y="34.67" width="0.28" height="0.28" fill="#fff"/><rect x="22.78" y="34.94" width="0.28" height="0.28" fill="#fff"/><path d="M19.94,37.39h.56v-.28h-.83v-.28h-.28V36h-.28v.83h-.28v.28H18v.28h.83v.28h.28v.83h.28v-.83h.28v-.28Zm-.55,0h-.28v-.28h.28Z" fill="#fff"/><rect x="18.56" y="36.56" width="0.28" height="0.28" fill="#fff"/><rect x="18.28" y="36.28" width="0.28" height="0.28" fill="#fff"/><rect x="19.67" y="36.56" width="0.28" height="0.28" fill="#fff"/><rect x="19.94" y="36.28" width="0.28" height="0.28" fill="#fff"/><rect x="19.67" y="37.67" width="0.28" height="0.28" fill="#fff"/><rect x="19.94" y="37.94" width="0.28" height="0.28" fill="#fff"/><rect x="18.56" y="37.67" width="0.28" height="0.28" fill="#fff"/><rect x="18.28" y="37.94" width="0.28" height="0.28" fill="#fff"/><polygon points="15.44 34.39 15.72 34.39 16 34.39 16 34.25 14.89 34.25 14.89 34.39 14.75 34.39 14.75 35.5 14.89 35.5 14.89 35.22 14.89 34.94 14.89 34.67 15.17 34.67 15.17 34.39 15.44 34.39" fill="#fff"/><rect x="15.17" y="34.67" width="0.28" height="0.28" fill="#fff"/><rect x="15.44" y="34.94" width="0.28" height="0.28" fill="#fff"/><polygon points="23.61 46.11 23.75 46.11 23.75 45 23.61 45 23.61 45.28 23.61 45.56 23.61 45.83 23.33 45.83 23.33 46.11 23.05 46.11 22.78 46.11 22.5 46.11 22.5 46.25 23.61 46.25 23.61 46.11" fill="#fff"/><rect x="23.06" y="45.56" width="0.28" height="0.28" fill="#fff"/><rect x="22.78" y="45.28" width="0.28" height="0.28" fill="#fff"/><polygon points="16 46.25 16 46.11 15.72 46.11 15.44 46.11 15.17 46.11 15.17 45.83 14.89 45.83 14.89 45.56 14.89 45.28 14.89 45 14.75 45 14.75 46.11 14.89 46.11 14.89 46.25 16 46.25" fill="#fff"/><rect x="15.17" y="45.56" width="0.28" height="0.28" fill="#fff"/><rect x="15.44" y="45.28" width="0.28" height="0.28" fill="#fff"/><polygon points="22.5 40.25 22.5 40.39 22.78 40.39 23.05 40.39 23.33 40.39 23.33 40.67 23.61 40.67 23.61 40.94 23.61 41.22 23.61 41.5 23.75 41.5 23.75 40.39 23.61 40.39 23.61 40.25 22.5 40.25" fill="#fff"/><rect x="23.06" y="40.67" width="0.28" height="0.28" fill="#fff"/><rect x="22.78" y="40.94" width="0.28" height="0.28" fill="#fff"/><path d="M19.94,43.39h.56v-.28h-.83v-.28h-.28V42h-.28v.83h-.28v.28H18v.28h.83v.28h.28v.83h.28v-.83h.28v-.28Zm-.55,0h-.28v-.28h.28Z" fill="#fff"/><rect x="18.56" y="42.56" width="0.28" height="0.28" fill="#fff"/><rect x="18.28" y="42.28" width="0.28" height="0.28" fill="#fff"/><rect x="19.67" y="42.56" width="0.28" height="0.28" fill="#fff"/><rect x="19.94" y="42.28" width="0.28" height="0.28" fill="#fff"/><rect x="19.67" y="43.67" width="0.28" height="0.28" fill="#fff"/><rect x="19.94" y="43.94" width="0.28" height="0.28" fill="#fff"/><rect x="18.56" y="43.67" width="0.28" height="0.28" fill="#fff"/><rect x="18.28" y="43.94" width="0.28" height="0.28" fill="#fff"/><polygon points="15.44 40.39 15.72 40.39 16 40.39 16 40.25 14.89 40.25 14.89 40.39 14.75 40.39 14.75 41.5 14.89 41.5 14.89 41.22 14.89 40.94 14.89 40.67 15.17 40.67 15.17 40.39 15.44 40.39" fill="#fff"/><rect x="15.17" y="40.67" width="0.28" height="0.28" fill="#fff"/><rect x="15.44" y="40.94" width="0.28" height="0.28" fill="#fff"/><polygon points="23.61 52.11 23.75 52.11 23.75 51 23.61 51 23.61 51.28 23.61 51.56 23.61 51.83 23.33 51.83 23.33 52.11 23.05 52.11 22.78 52.11 22.5 52.11 22.5 52.25 23.61 52.25 23.61 52.11" fill="#fff"/><rect x="23.06" y="51.56" width="0.28" height="0.28" fill="#fff"/><rect x="22.78" y="51.28" width="0.28" height="0.28" fill="#fff"/><polygon points="16 52.25 16 52.11 15.72 52.11 15.44 52.11 15.17 52.11 15.17 51.83 14.89 51.83 14.89 51.56 14.89 51.28 14.89 51 14.75 51 14.75 52.11 14.89 52.11 14.89 52.25 16 52.25" fill="#fff"/><rect x="15.17" y="51.56" width="0.28" height="0.28" fill="#fff"/><rect x="15.44" y="51.28" width="0.28" height="0.28" fill="#fff"/><polygon points="22.5 46.25 22.5 46.39 22.78 46.39 23.05 46.39 23.33 46.39 23.33 46.67 23.61 46.67 23.61 46.94 23.61 47.22 23.61 47.5 23.75 47.5 23.75 46.39 23.61 46.39 23.61 46.25 22.5 46.25" fill="#fff"/><rect x="23.06" y="46.67" width="0.28" height="0.28" fill="#fff"/><rect x="22.78" y="46.94" width="0.28" height="0.28" fill="#fff"/><path d="M19.94,49.39h.56v-.28h-.83v-.28h-.28V48h-.28v.83h-.28v.28H18v.28h.83v.28h.28v.83h.28v-.83h.28v-.28Zm-.55,0h-.28v-.28h.28Z" fill="#fff"/><rect x="18.56" y="48.56" width="0.28" height="0.28" fill="#fff"/><rect x="18.28" y="48.28" width="0.28" height="0.28" fill="#fff"/><rect x="19.67" y="48.56" width="0.28" height="0.28" fill="#fff"/><rect x="19.94" y="48.28" width="0.28" height="0.28" fill="#fff"/><rect x="19.67" y="49.67" width="0.28" height="0.28" fill="#fff"/><rect x="19.94" y="49.94" width="0.28" height="0.28" fill="#fff"/><rect x="18.56" y="49.67" width="0.28" height="0.28" fill="#fff"/><rect x="18.28" y="49.94" width="0.28" height="0.28" fill="#fff"/><polygon points="15.44 46.39 15.72 46.39 16 46.39 16 46.25 14.89 46.25 14.89 46.39 14.75 46.39 14.75 47.5 14.89 47.5 14.89 47.22 14.89 46.94 14.89 46.67 15.17 46.67 15.17 46.39 15.44 46.39" fill="#fff"/><rect x="15.17" y="46.67" width="0.28" height="0.28" fill="#fff"/><rect x="15.44" y="46.94" width="0.28" height="0.28" fill="#fff"/><polygon points="22.5 52.25 22.5 52.39 22.78 52.39 23.05 52.39 23.33 52.39 23.33 52.67 23.61 52.67 23.61 52.94 23.61 53.22 23.61 53.5 23.75 53.5 23.75 52.39 23.61 52.39 23.61 52.25 22.5 52.25" fill="#fff"/><rect x="23.06" y="52.67" width="0.28" height="0.28" fill="#fff"/><rect x="22.78" y="52.94" width="0.28" height="0.28" fill="#fff"/><path d="M19.94,55.39h.56v-.28h-.83v-.28h-.28V54h-.28v.83h-.28v.28H18v.28h.83v.28h.28v.83h.28v-.83h.28v-.28Zm-.55,0h-.28v-.28h.28Z" fill="#fff"/><rect x="18.56" y="54.56" width="0.28" height="0.28" fill="#fff"/><rect x="18.28" y="54.28" width="0.28" height="0.28" fill="#fff"/><rect x="19.67" y="54.56" width="0.28" height="0.28" fill="#fff"/><rect x="19.94" y="54.28" width="0.28" height="0.28" fill="#fff"/><rect x="19.67" y="55.67" width="0.28" height="0.28" fill="#fff"/><rect x="19.94" y="55.94" width="0.28" height="0.28" fill="#fff"/><rect x="18.56" y="55.67" width="0.28" height="0.28" fill="#fff"/><rect x="18.28" y="55.94" width="0.28" height="0.28" fill="#fff"/><polygon points="15.44 52.39 15.72 52.39 16 52.39 16 52.25 14.89 52.25 14.89 52.39 14.75 52.39 14.75 53.5 14.89 53.5 14.89 53.22 14.89 52.94 14.89 52.67 15.17 52.67 15.17 52.39 15.44 52.39" fill="#fff"/><rect x="15.17" y="52.67" width="0.28" height="0.28" fill="#fff"/><rect x="15.44" y="52.94" width="0.28" height="0.28" fill="#fff"/><polygon points="14.61 4.11 14.75 4.11 14.75 3 14.61 3 14.61 3.28 14.61 3.56 14.61 3.83 14.33 3.83 14.33 4.11 14.05 4.11 13.78 4.11 13.5 4.11 13.5 4.25 14.61 4.25 14.61 4.11" fill="#fff"/><rect x="14.06" y="3.56" width="0.28" height="0.28" fill="#fff"/><rect x="13.78" y="3.28" width="0.28" height="0.28" fill="#fff"/><polygon points="7 4.25 7 4.11 6.72 4.11 6.44 4.11 6.17 4.11 6.17 3.83 5.89 3.83 5.89 3.56 5.89 3.28 5.89 3 5.75 3 5.75 4.11 5.89 4.11 5.89 4.25 7 4.25" fill="#fff"/><rect x="6.17" y="3.56" width="0.28" height="0.28" fill="#fff"/><rect x="6.44" y="3.28" width="0.28" height="0.28" fill="#fff"/><path d="M10.94,1.39h.56V1.11h-.83V.83h-.28V0h-.28V.83H9.83v.28H9v.28h.83v.28h.28V2.5h.28V1.67h.28V1.39Zm-.55,0h-.28V1.11h.28Z" fill="#fff"/><rect x="9.56" y="0.56" width="0.28" height="0.28" fill="#fff"/><rect x="9.28" y="0.28" width="0.28" height="0.28" fill="#fff"/><rect x="10.67" y="0.56" width="0.28" height="0.28" fill="#fff"/><rect x="10.94" y="0.28" width="0.28" height="0.28" fill="#fff"/><rect x="10.67" y="1.67" width="0.28" height="0.28" fill="#fff"/><rect x="10.94" y="1.94" width="0.28" height="0.28" fill="#fff"/><rect x="9.56" y="1.67" width="0.28" height="0.28" fill="#fff"/><rect x="9.28" y="1.94" width="0.28" height="0.28" fill="#fff"/><polygon points="14.61 10.11 14.75 10.11 14.75 9 14.61 9 14.61 9.28 14.61 9.56 14.61 9.83 14.33 9.83 14.33 10.11 14.05 10.11 13.78 10.11 13.5 10.11 13.5 10.25 14.61 10.25 14.61 10.11" fill="#fff"/><rect x="14.06" y="9.56" width="0.28" height="0.28" fill="#fff"/><rect x="13.78" y="9.28" width="0.28" height="0.28" fill="#fff"/><polygon points="7 10.25 7 10.11 6.72 10.11 6.44 10.11 6.17 10.11 6.17 9.83 5.89 9.83 5.89 9.56 5.89 9.28 5.89 9 5.75 9 5.75 10.11 5.89 10.11 5.89 10.25 7 10.25" fill="#fff"/><rect x="6.17" y="9.56" width="0.28" height="0.28" fill="#fff"/><rect x="6.44" y="9.28" width="0.28" height="0.28" fill="#fff"/><polygon points="13.5 4.25 13.5 4.39 13.78 4.39 14.05 4.39 14.33 4.39 14.33 4.67 14.61 4.67 14.61 4.94 14.61 5.22 14.61 5.5 14.75 5.5 14.75 4.39 14.61 4.39 14.61 4.25 13.5 4.25" fill="#fff"/><rect x="14.06" y="4.67" width="0.28" height="0.28" fill="#fff"/><rect x="13.78" y="4.94" width="0.28" height="0.28" fill="#fff"/><path d="M10.94,7.39h.56V7.11h-.83V6.83h-.28V6h-.28v.83H9.83v.28H9v.28h.83v.28h.28V8.5h.28V7.67h.28V7.39Zm-.55,0h-.28V7.11h.28Z" fill="#fff"/><rect x="9.56" y="6.56" width="0.28" height="0.28" fill="#fff"/><rect x="9.28" y="6.28" width="0.28" height="0.28" fill="#fff"/><rect x="10.67" y="6.56" width="0.28" height="0.28" fill="#fff"/><rect x="10.94" y="6.28" width="0.28" height="0.28" fill="#fff"/><rect x="10.67" y="7.67" width="0.28" height="0.28" fill="#fff"/><rect x="10.94" y="7.94" width="0.28" height="0.28" fill="#fff"/><rect x="9.56" y="7.67" width="0.28" height="0.28" fill="#fff"/><rect x="9.28" y="7.94" width="0.28" height="0.28" fill="#fff"/><polygon points="6.44 4.39 6.72 4.39 7 4.39 7 4.25 5.89 4.25 5.89 4.39 5.75 4.39 5.75 5.5 5.89 5.5 5.89 5.22 5.89 4.94 5.89 4.67 6.17 4.67 6.17 4.39 6.44 4.39" fill="#fff"/><rect x="6.17" y="4.67" width="0.28" height="0.28" fill="#fff"/><rect x="6.44" y="4.94" width="0.28" height="0.28" fill="#fff"/><polygon points="14.61 16.11 14.75 16.11 14.75 15 14.61 15 14.61 15.28 14.61 15.56 14.61 15.83 14.33 15.83 14.33 16.11 14.05 16.11 13.78 16.11 13.5 16.11 13.5 16.25 14.61 16.25 14.61 16.11" fill="#fff"/><rect x="14.06" y="15.56" width="0.28" height="0.28" fill="#fff"/><rect x="13.78" y="15.28" width="0.28" height="0.28" fill="#fff"/><polygon points="7 16.25 7 16.11 6.72 16.11 6.44 16.11 6.17 16.11 6.17 15.83 5.89 15.83 5.89 15.56 5.89 15.28 5.89 15 5.75 15 5.75 16.11 5.89 16.11 5.89 16.25 7 16.25" fill="#fff"/><rect x="6.17" y="15.56" width="0.28" height="0.28" fill="#fff"/><rect x="6.44" y="15.28" width="0.28" height="0.28" fill="#fff"/><polygon points="13.5 10.25 13.5 10.39 13.78 10.39 14.05 10.39 14.33 10.39 14.33 10.67 14.61 10.67 14.61 10.94 14.61 11.22 14.61 11.5 14.75 11.5 14.75 10.39 14.61 10.39 14.61 10.25 13.5 10.25" fill="#fff"/><rect x="14.06" y="10.67" width="0.28" height="0.28" fill="#fff"/><rect x="13.78" y="10.94" width="0.28" height="0.28" fill="#fff"/><path d="M10.94,13.39h.56v-.28h-.83v-.28h-.28V12h-.28v.83H9.83v.28H9v.28h.83v.28h.28v.83h.28v-.83h.28v-.28Zm-.55,0h-.28v-.28h.28Z" fill="#fff"/><rect x="9.56" y="12.56" width="0.28" height="0.28" fill="#fff"/><rect x="9.28" y="12.28" width="0.28" height="0.28" fill="#fff"/><rect x="10.67" y="12.56" width="0.28" height="0.28" fill="#fff"/><rect x="10.94" y="12.28" width="0.28" height="0.28" fill="#fff"/><rect x="10.67" y="13.67" width="0.28" height="0.28" fill="#fff"/><rect x="10.94" y="13.94" width="0.28" height="0.28" fill="#fff"/><rect x="9.56" y="13.67" width="0.28" height="0.28" fill="#fff"/><rect x="9.28" y="13.94" width="0.28" height="0.28" fill="#fff"/><polygon points="6.44 10.39 6.72 10.39 7 10.39 7 10.25 5.89 10.25 5.89 10.39 5.75 10.39 5.75 11.5 5.89 11.5 5.89 11.22 5.89 10.94 5.89 10.67 6.17 10.67 6.17 10.39 6.44 10.39" fill="#fff"/><rect x="6.17" y="10.67" width="0.28" height="0.28" fill="#fff"/><rect x="6.44" y="10.94" width="0.28" height="0.28" fill="#fff"/><polygon points="14.61 22.11 14.75 22.11 14.75 21 14.61 21 14.61 21.28 14.61 21.56 14.61 21.83 14.33 21.83 14.33 22.11 14.05 22.11 13.78 22.11 13.5 22.11 13.5 22.25 14.61 22.25 14.61 22.11" fill="#fff"/><rect x="14.06" y="21.56" width="0.28" height="0.28" fill="#fff"/><rect x="13.78" y="21.28" width="0.28" height="0.28" fill="#fff"/><polygon points="7 22.25 7 22.11 6.72 22.11 6.44 22.11 6.17 22.11 6.17 21.83 5.89 21.83 5.89 21.56 5.89 21.28 5.89 21 5.75 21 5.75 22.11 5.89 22.11 5.89 22.25 7 22.25" fill="#fff"/><rect x="6.17" y="21.56" width="0.28" height="0.28" fill="#fff"/><rect x="6.44" y="21.28" width="0.28" height="0.28" fill="#fff"/><polygon points="13.5 16.25 13.5 16.39 13.78 16.39 14.05 16.39 14.33 16.39 14.33 16.67 14.61 16.67 14.61 16.94 14.61 17.22 14.61 17.5 14.75 17.5 14.75 16.39 14.61 16.39 14.61 16.25 13.5 16.25" fill="#fff"/><rect x="14.06" y="16.67" width="0.28" height="0.28" fill="#fff"/><rect x="13.78" y="16.94" width="0.28" height="0.28" fill="#fff"/><path d="M10.94,19.39h.56v-.28h-.83v-.28h-.28V18h-.28v.83H9.83v.28H9v.28h.83v.28h.28v.83h.28v-.83h.28v-.28Zm-.55,0h-.28v-.28h.28Z" fill="#fff"/><rect x="9.56" y="18.56" width="0.28" height="0.28" fill="#fff"/><rect x="9.28" y="18.28" width="0.28" height="0.28" fill="#fff"/><rect x="10.67" y="18.56" width="0.28" height="0.28" fill="#fff"/><rect x="10.94" y="18.28" width="0.28" height="0.28" fill="#fff"/><rect x="10.67" y="19.67" width="0.28" height="0.28" fill="#fff"/><rect x="10.94" y="19.94" width="0.28" height="0.28" fill="#fff"/><rect x="9.56" y="19.67" width="0.28" height="0.28" fill="#fff"/><rect x="9.28" y="19.94" width="0.28" height="0.28" fill="#fff"/><polygon points="6.44 16.39 6.72 16.39 7 16.39 7 16.25 5.89 16.25 5.89 16.39 5.75 16.39 5.75 17.5 5.89 17.5 5.89 17.22 5.89 16.94 5.89 16.67 6.17 16.67 6.17 16.39 6.44 16.39" fill="#fff"/><rect x="6.17" y="16.67" width="0.28" height="0.28" fill="#fff"/><rect x="6.44" y="16.94" width="0.28" height="0.28" fill="#fff"/><polygon points="14.61 28.11 14.75 28.11 14.75 27 14.61 27 14.61 27.28 14.61 27.56 14.61 27.83 14.33 27.83 14.33 28.11 14.05 28.11 13.78 28.11 13.5 28.11 13.5 28.25 14.61 28.25 14.61 28.11" fill="#fff"/><rect x="14.06" y="27.56" width="0.28" height="0.28" fill="#fff"/><rect x="13.78" y="27.28" width="0.28" height="0.28" fill="#fff"/><polygon points="7 28.25 7 28.11 6.72 28.11 6.44 28.11 6.17 28.11 6.17 27.83 5.89 27.83 5.89 27.56 5.89 27.28 5.89 27 5.75 27 5.75 28.11 5.89 28.11 5.89 28.25 7 28.25" fill="#fff"/><rect x="6.17" y="27.56" width="0.28" height="0.28" fill="#fff"/><rect x="6.44" y="27.28" width="0.28" height="0.28" fill="#fff"/><polygon points="13.5 22.25 13.5 22.39 13.78 22.39 14.05 22.39 14.33 22.39 14.33 22.67 14.61 22.67 14.61 22.94 14.61 23.22 14.61 23.5 14.75 23.5 14.75 22.39 14.61 22.39 14.61 22.25 13.5 22.25" fill="#fff"/><rect x="14.06" y="22.67" width="0.28" height="0.28" fill="#fff"/><rect x="13.78" y="22.94" width="0.28" height="0.28" fill="#fff"/><path d="M10.94,25.39h.56v-.28h-.83v-.28h-.28V24h-.28v.83H9.83v.28H9v.28h.83v.28h.28v.83h.28v-.83h.28v-.28Zm-.55,0h-.28v-.28h.28Z" fill="#fff"/><rect x="9.56" y="24.56" width="0.28" height="0.28" fill="#fff"/><rect x="9.28" y="24.28" width="0.28" height="0.28" fill="#fff"/><rect x="10.67" y="24.56" width="0.28" height="0.28" fill="#fff"/><rect x="10.94" y="24.28" width="0.28" height="0.28" fill="#fff"/><rect x="10.67" y="25.67" width="0.28" height="0.28" fill="#fff"/><rect x="10.94" y="25.94" width="0.28" height="0.28" fill="#fff"/><rect x="9.56" y="25.67" width="0.28" height="0.28" fill="#fff"/><rect x="9.28" y="25.94" width="0.28" height="0.28" fill="#fff"/><polygon points="6.44 22.39 6.72 22.39 7 22.39 7 22.25 5.89 22.25 5.89 22.39 5.75 22.39 5.75 23.5 5.89 23.5 5.89 23.22 5.89 22.94 5.89 22.67 6.17 22.67 6.17 22.39 6.44 22.39" fill="#fff"/><rect x="6.17" y="22.67" width="0.28" height="0.28" fill="#fff"/><rect x="6.44" y="22.94" width="0.28" height="0.28" fill="#fff"/><polygon points="14.61 34.11 14.75 34.11 14.75 33 14.61 33 14.61 33.28 14.61 33.56 14.61 33.83 14.33 33.83 14.33 34.11 14.05 34.11 13.78 34.11 13.5 34.11 13.5 34.25 14.61 34.25 14.61 34.11" fill="#fff"/><rect x="14.06" y="33.56" width="0.28" height="0.28" fill="#fff"/><rect x="13.78" y="33.28" width="0.28" height="0.28" fill="#fff"/><polygon points="7 34.25 7 34.11 6.72 34.11 6.44 34.11 6.17 34.11 6.17 33.83 5.89 33.83 5.89 33.56 5.89 33.28 5.89 33 5.75 33 5.75 34.11 5.89 34.11 5.89 34.25 7 34.25" fill="#fff"/><rect x="6.17" y="33.56" width="0.28" height="0.28" fill="#fff"/><rect x="6.44" y="33.28" width="0.28" height="0.28" fill="#fff"/><polygon points="13.5 28.25 13.5 28.39 13.78 28.39 14.05 28.39 14.33 28.39 14.33 28.67 14.61 28.67 14.61 28.94 14.61 29.22 14.61 29.5 14.75 29.5 14.75 28.39 14.61 28.39 14.61 28.25 13.5 28.25" fill="#fff"/><rect x="14.06" y="28.67" width="0.28" height="0.28" fill="#fff"/><rect x="13.78" y="28.94" width="0.28" height="0.28" fill="#fff"/><path d="M10.94,31.39h.56v-.28h-.83v-.28h-.28V30h-.28v.83H9.83v.28H9v.28h.83v.28h.28v.83h.28v-.83h.28v-.28Zm-.55,0h-.28v-.28h.28Z" fill="#fff"/><rect x="9.56" y="30.56" width="0.28" height="0.28" fill="#fff"/><rect x="9.28" y="30.28" width="0.28" height="0.28" fill="#fff"/><rect x="10.67" y="30.56" width="0.28" height="0.28" fill="#fff"/><rect x="10.94" y="30.28" width="0.28" height="0.28" fill="#fff"/><rect x="10.67" y="31.67" width="0.28" height="0.28" fill="#fff"/><rect x="10.94" y="31.94" width="0.28" height="0.28" fill="#fff"/><rect x="9.56" y="31.67" width="0.28" height="0.28" fill="#fff"/><rect x="9.28" y="31.94" width="0.28" height="0.28" fill="#fff"/><polygon points="6.44 28.39 6.72 28.39 7 28.39 7 28.25 5.89 28.25 5.89 28.39 5.75 28.39 5.75 29.5 5.89 29.5 5.89 29.22 5.89 28.94 5.89 28.67 6.17 28.67 6.17 28.39 6.44 28.39" fill="#fff"/><rect x="6.17" y="28.67" width="0.28" height="0.28" fill="#fff"/><rect x="6.44" y="28.94" width="0.28" height="0.28" fill="#fff"/><polygon points="14.61 40.11 14.75 40.11 14.75 39 14.61 39 14.61 39.28 14.61 39.56 14.61 39.83 14.33 39.83 14.33 40.11 14.05 40.11 13.78 40.11 13.5 40.11 13.5 40.25 14.61 40.25 14.61 40.11" fill="#fff"/><rect x="14.06" y="39.56" width="0.28" height="0.28" fill="#fff"/><rect x="13.78" y="39.28" width="0.28" height="0.28" fill="#fff"/><polygon points="7 40.25 7 40.11 6.72 40.11 6.44 40.11 6.17 40.11 6.17 39.83 5.89 39.83 5.89 39.56 5.89 39.28 5.89 39 5.75 39 5.75 40.11 5.89 40.11 5.89 40.25 7 40.25" fill="#fff"/><rect x="6.17" y="39.56" width="0.28" height="0.28" fill="#fff"/><rect x="6.44" y="39.28" width="0.28" height="0.28" fill="#fff"/><polygon points="13.5 34.25 13.5 34.39 13.78 34.39 14.05 34.39 14.33 34.39 14.33 34.67 14.61 34.67 14.61 34.94 14.61 35.22 14.61 35.5 14.75 35.5 14.75 34.39 14.61 34.39 14.61 34.25 13.5 34.25" fill="#fff"/><rect x="14.06" y="34.67" width="0.28" height="0.28" fill="#fff"/><rect x="13.78" y="34.94" width="0.28" height="0.28" fill="#fff"/><path d="M10.94,37.39h.56v-.28h-.83v-.28h-.28V36h-.28v.83H9.83v.28H9v.28h.83v.28h.28v.83h.28v-.83h.28v-.28Zm-.55,0h-.28v-.28h.28Z" fill="#fff"/><rect x="9.56" y="36.56" width="0.28" height="0.28" fill="#fff"/><rect x="9.28" y="36.28" width="0.28" height="0.28" fill="#fff"/><rect x="10.67" y="36.56" width="0.28" height="0.28" fill="#fff"/><rect x="10.94" y="36.28" width="0.28" height="0.28" fill="#fff"/><rect x="10.67" y="37.67" width="0.28" height="0.28" fill="#fff"/><rect x="10.94" y="37.94" width="0.28" height="0.28" fill="#fff"/><rect x="9.56" y="37.67" width="0.28" height="0.28" fill="#fff"/><rect x="9.28" y="37.94" width="0.28" height="0.28" fill="#fff"/><polygon points="6.44 34.39 6.72 34.39 7 34.39 7 34.25 5.89 34.25 5.89 34.39 5.75 34.39 5.75 35.5 5.89 35.5 5.89 35.22 5.89 34.94 5.89 34.67 6.17 34.67 6.17 34.39 6.44 34.39" fill="#fff"/><rect x="6.17" y="34.67" width="0.28" height="0.28" fill="#fff"/><rect x="6.44" y="34.94" width="0.28" height="0.28" fill="#fff"/><polygon points="14.61 46.11 14.75 46.11 14.75 45 14.61 45 14.61 45.28 14.61 45.56 14.61 45.83 14.33 45.83 14.33 46.11 14.05 46.11 13.78 46.11 13.5 46.11 13.5 46.25 14.61 46.25 14.61 46.11" fill="#fff"/><rect x="14.06" y="45.56" width="0.28" height="0.28" fill="#fff"/><rect x="13.78" y="45.28" width="0.28" height="0.28" fill="#fff"/><polygon points="7 46.25 7 46.11 6.72 46.11 6.44 46.11 6.17 46.11 6.17 45.83 5.89 45.83 5.89 45.56 5.89 45.28 5.89 45 5.75 45 5.75 46.11 5.89 46.11 5.89 46.25 7 46.25" fill="#fff"/><rect x="6.17" y="45.56" width="0.28" height="0.28" fill="#fff"/><rect x="6.44" y="45.28" width="0.28" height="0.28" fill="#fff"/><polygon points="13.5 40.25 13.5 40.39 13.78 40.39 14.05 40.39 14.33 40.39 14.33 40.67 14.61 40.67 14.61 40.94 14.61 41.22 14.61 41.5 14.75 41.5 14.75 40.39 14.61 40.39 14.61 40.25 13.5 40.25" fill="#fff"/><rect x="14.06" y="40.67" width="0.28" height="0.28" fill="#fff"/><rect x="13.78" y="40.94" width="0.28" height="0.28" fill="#fff"/><path d="M10.94,43.39h.56v-.28h-.83v-.28h-.28V42h-.28v.83H9.83v.28H9v.28h.83v.28h.28v.83h.28v-.83h.28v-.28Zm-.55,0h-.28v-.28h.28Z" fill="#fff"/><rect x="9.56" y="42.56" width="0.28" height="0.28" fill="#fff"/><rect x="9.28" y="42.28" width="0.28" height="0.28" fill="#fff"/><rect x="10.67" y="42.56" width="0.28" height="0.28" fill="#fff"/><rect x="10.94" y="42.28" width="0.28" height="0.28" fill="#fff"/><rect x="10.67" y="43.67" width="0.28" height="0.28" fill="#fff"/><rect x="10.94" y="43.94" width="0.28" height="0.28" fill="#fff"/><rect x="9.56" y="43.67" width="0.28" height="0.28" fill="#fff"/><rect x="9.28" y="43.94" width="0.28" height="0.28" fill="#fff"/><polygon points="6.44 40.39 6.72 40.39 7 40.39 7 40.25 5.89 40.25 5.89 40.39 5.75 40.39 5.75 41.5 5.89 41.5 5.89 41.22 5.89 40.94 5.89 40.67 6.17 40.67 6.17 40.39 6.44 40.39" fill="#fff"/><rect x="6.17" y="40.67" width="0.28" height="0.28" fill="#fff"/><rect x="6.44" y="40.94" width="0.28" height="0.28" fill="#fff"/><polygon points="14.61 52.11 14.75 52.11 14.75 51 14.61 51 14.61 51.28 14.61 51.56 14.61 51.83 14.33 51.83 14.33 52.11 14.05 52.11 13.78 52.11 13.5 52.11 13.5 52.25 14.61 52.25 14.61 52.11" fill="#fff"/><rect x="14.06" y="51.56" width="0.28" height="0.28" fill="#fff"/><rect x="13.78" y="51.28" width="0.28" height="0.28" fill="#fff"/><polygon points="7 52.25 7 52.11 6.72 52.11 6.44 52.11 6.17 52.11 6.17 51.83 5.89 51.83 5.89 51.56 5.89 51.28 5.89 51 5.75 51 5.75 52.11 5.89 52.11 5.89 52.25 7 52.25" fill="#fff"/><rect x="6.17" y="51.56" width="0.28" height="0.28" fill="#fff"/><rect x="6.44" y="51.28" width="0.28" height="0.28" fill="#fff"/><polygon points="13.5 46.25 13.5 46.39 13.78 46.39 14.05 46.39 14.33 46.39 14.33 46.67 14.61 46.67 14.61 46.94 14.61 47.22 14.61 47.5 14.75 47.5 14.75 46.39 14.61 46.39 14.61 46.25 13.5 46.25" fill="#fff"/><rect x="14.06" y="46.67" width="0.28" height="0.28" fill="#fff"/><rect x="13.78" y="46.94" width="0.28" height="0.28" fill="#fff"/><path d="M10.94,49.39h.56v-.28h-.83v-.28h-.28V48h-.28v.83H9.83v.28H9v.28h.83v.28h.28v.83h.28v-.83h.28v-.28Zm-.55,0h-.28v-.28h.28Z" fill="#fff"/><rect x="9.56" y="48.56" width="0.28" height="0.28" fill="#fff"/><rect x="9.28" y="48.28" width="0.28" height="0.28" fill="#fff"/><rect x="10.67" y="48.56" width="0.28" height="0.28" fill="#fff"/><rect x="10.94" y="48.28" width="0.28" height="0.28" fill="#fff"/><rect x="10.67" y="49.67" width="0.28" height="0.28" fill="#fff"/><rect x="10.94" y="49.94" width="0.28" height="0.28" fill="#fff"/><rect x="9.56" y="49.67" width="0.28" height="0.28" fill="#fff"/><rect x="9.28" y="49.94" width="0.28" height="0.28" fill="#fff"/><polygon points="6.44 46.39 6.72 46.39 7 46.39 7 46.25 5.89 46.25 5.89 46.39 5.75 46.39 5.75 47.5 5.89 47.5 5.89 47.22 5.89 46.94 5.89 46.67 6.17 46.67 6.17 46.39 6.44 46.39" fill="#fff"/><rect x="6.17" y="46.67" width="0.28" height="0.28" fill="#fff"/><rect x="6.44" y="46.94" width="0.28" height="0.28" fill="#fff"/><polygon points="13.5 52.25 13.5 52.39 13.78 52.39 14.05 52.39 14.33 52.39 14.33 52.67 14.61 52.67 14.61 52.94 14.61 53.22 14.61 53.5 14.75 53.5 14.75 52.39 14.61 52.39 14.61 52.25 13.5 52.25" fill="#fff"/><rect x="14.06" y="52.67" width="0.28" height="0.28" fill="#fff"/><rect x="13.78" y="52.94" width="0.28" height="0.28" fill="#fff"/><path d="M10.94,55.39h.56v-.28h-.83v-.28h-.28V54h-.28v.83H9.83v.28H9v.28h.83v.28h.28v.83h.28v-.83h.28v-.28Zm-.55,0h-.28v-.28h.28Z" fill="#fff"/><rect x="9.56" y="54.56" width="0.28" height="0.28" fill="#fff"/><rect x="9.28" y="54.28" width="0.28" height="0.28" fill="#fff"/><rect x="10.67" y="54.56" width="0.28" height="0.28" fill="#fff"/><rect x="10.94" y="54.28" width="0.28" height="0.28" fill="#fff"/><rect x="10.67" y="55.67" width="0.28" height="0.28" fill="#fff"/><rect x="10.94" y="55.94" width="0.28" height="0.28" fill="#fff"/><rect x="9.56" y="55.67" width="0.28" height="0.28" fill="#fff"/><rect x="9.28" y="55.94" width="0.28" height="0.28" fill="#fff"/><polygon points="6.44 52.39 6.72 52.39 7 52.39 7 52.25 5.89 52.25 5.89 52.39 5.75 52.39 5.75 53.5 5.89 53.5 5.89 53.22 5.89 52.94 5.89 52.67 6.17 52.67 6.17 52.39 6.44 52.39" fill="#fff"/><rect x="6.17" y="52.67" width="0.28" height="0.28" fill="#fff"/><rect x="6.44" y="52.94" width="0.28" height="0.28" fill="#fff"/><polygon points="5.61 4.11 5.75 4.11 5.75 3 5.61 3 5.61 3.28 5.61 3.56 5.61 3.83 5.33 3.83 5.33 4.11 5.05 4.11 4.78 4.11 4.5 4.11 4.5 4.25 5.61 4.25 5.61 4.11" fill="#fff"/><rect x="5.06" y="3.56" width="0.28" height="0.28" fill="#fff"/><rect x="4.78" y="3.28" width="0.28" height="0.28" fill="#fff"/><path d="M1.94,1.39H2.5V1.11H1.67V.83H1.39V0H1.11V.83H.83v.28H0v.28H.83v.28h.28V2.5h.28V1.67h.28V1.39Zm-.55,0H1.11V1.11h.28Z" fill="#fff"/><rect x="0.56" y="0.56" width="0.28" height="0.28" fill="#fff"/><rect x="0.28" y="0.28" width="0.28" height="0.28" fill="#fff"/><rect x="1.67" y="0.56" width="0.28" height="0.28" fill="#fff"/><rect x="1.94" y="0.28" width="0.28" height="0.28" fill="#fff"/><rect x="1.67" y="1.67" width="0.28" height="0.28" fill="#fff"/><rect x="1.94" y="1.94" width="0.28" height="0.28" fill="#fff"/><rect x="0.56" y="1.67" width="0.28" height="0.28" fill="#fff"/><rect x="0.28" y="1.94" width="0.28" height="0.28" fill="#fff"/><polygon points="5.61 10.11 5.75 10.11 5.75 9 5.61 9 5.61 9.28 5.61 9.56 5.61 9.83 5.33 9.83 5.33 10.11 5.05 10.11 4.78 10.11 4.5 10.11 4.5 10.25 5.61 10.25 5.61 10.11" fill="#fff"/><rect x="5.06" y="9.56" width="0.28" height="0.28" fill="#fff"/><rect x="4.78" y="9.28" width="0.28" height="0.28" fill="#fff"/><polygon points="4.5 4.25 4.5 4.39 4.78 4.39 5.05 4.39 5.33 4.39 5.33 4.67 5.61 4.67 5.61 4.94 5.61 5.22 5.61 5.5 5.75 5.5 5.75 4.39 5.61 4.39 5.61 4.25 4.5 4.25" fill="#fff"/><rect x="5.06" y="4.67" width="0.28" height="0.28" fill="#fff"/><rect x="4.78" y="4.94" width="0.28" height="0.28" fill="#fff"/><path d="M1.94,7.39H2.5V7.11H1.67V6.83H1.39V6H1.11v.83H.83v.28H0v.28H.83v.28h.28V8.5h.28V7.67h.28V7.39Zm-.55,0H1.11V7.11h.28Z" fill="#fff"/><rect x="0.56" y="6.56" width="0.28" height="0.28" fill="#fff"/><rect x="0.28" y="6.28" width="0.28" height="0.28" fill="#fff"/><rect x="1.67" y="6.56" width="0.28" height="0.28" fill="#fff"/><rect x="1.94" y="6.28" width="0.28" height="0.28" fill="#fff"/><rect x="1.67" y="7.67" width="0.28" height="0.28" fill="#fff"/><rect x="1.94" y="7.94" width="0.28" height="0.28" fill="#fff"/><rect x="0.56" y="7.67" width="0.28" height="0.28" fill="#fff"/><rect x="0.28" y="7.94" width="0.28" height="0.28" fill="#fff"/><polygon points="5.61 16.11 5.75 16.11 5.75 15 5.61 15 5.61 15.28 5.61 15.56 5.61 15.83 5.33 15.83 5.33 16.11 5.05 16.11 4.78 16.11 4.5 16.11 4.5 16.25 5.61 16.25 5.61 16.11" fill="#fff"/><rect x="5.06" y="15.56" width="0.28" height="0.28" fill="#fff"/><rect x="4.78" y="15.28" width="0.28" height="0.28" fill="#fff"/><polygon points="4.5 10.25 4.5 10.39 4.78 10.39 5.05 10.39 5.33 10.39 5.33 10.67 5.61 10.67 5.61 10.94 5.61 11.22 5.61 11.5 5.75 11.5 5.75 10.39 5.61 10.39 5.61 10.25 4.5 10.25" fill="#fff"/><rect x="5.06" y="10.67" width="0.28" height="0.28" fill="#fff"/><rect x="4.78" y="10.94" width="0.28" height="0.28" fill="#fff"/><path d="M1.94,13.39H2.5v-.28H1.67v-.28H1.39V12H1.11v.83H.83v.28H0v.28H.83v.28h.28v.83h.28v-.83h.28v-.28Zm-.55,0H1.11v-.28h.28Z" fill="#fff"/><rect x="0.56" y="12.56" width="0.28" height="0.28" fill="#fff"/><rect x="0.28" y="12.28" width="0.28" height="0.28" fill="#fff"/><rect x="1.67" y="12.56" width="0.28" height="0.28" fill="#fff"/><rect x="1.94" y="12.28" width="0.28" height="0.28" fill="#fff"/><rect x="1.67" y="13.67" width="0.28" height="0.28" fill="#fff"/><rect x="1.94" y="13.94" width="0.28" height="0.28" fill="#fff"/><rect x="0.56" y="13.67" width="0.28" height="0.28" fill="#fff"/><rect x="0.28" y="13.94" width="0.28" height="0.28" fill="#fff"/><polygon points="5.61 22.11 5.75 22.11 5.75 21 5.61 21 5.61 21.28 5.61 21.56 5.61 21.83 5.33 21.83 5.33 22.11 5.05 22.11 4.78 22.11 4.5 22.11 4.5 22.25 5.61 22.25 5.61 22.11" fill="#fff"/><rect x="5.06" y="21.56" width="0.28" height="0.28" fill="#fff"/><rect x="4.78" y="21.28" width="0.28" height="0.28" fill="#fff"/><polygon points="4.5 16.25 4.5 16.39 4.78 16.39 5.05 16.39 5.33 16.39 5.33 16.67 5.61 16.67 5.61 16.94 5.61 17.22 5.61 17.5 5.75 17.5 5.75 16.39 5.61 16.39 5.61 16.25 4.5 16.25" fill="#fff"/><rect x="5.06" y="16.67" width="0.28" height="0.28" fill="#fff"/><rect x="4.78" y="16.94" width="0.28" height="0.28" fill="#fff"/><path d="M1.94,19.39H2.5v-.28H1.67v-.28H1.39V18H1.11v.83H.83v.28H0v.28H.83v.28h.28v.83h.28v-.83h.28v-.28Zm-.55,0H1.11v-.28h.28Z" fill="#fff"/><rect x="0.56" y="18.56" width="0.28" height="0.28" fill="#fff"/><rect x="0.28" y="18.28" width="0.28" height="0.28" fill="#fff"/><rect x="1.67" y="18.56" width="0.28" height="0.28" fill="#fff"/><rect x="1.94" y="18.28" width="0.28" height="0.28" fill="#fff"/><rect x="1.67" y="19.67" width="0.28" height="0.28" fill="#fff"/><rect x="1.94" y="19.94" width="0.28" height="0.28" fill="#fff"/><rect x="0.56" y="19.67" width="0.28" height="0.28" fill="#fff"/><rect x="0.28" y="19.94" width="0.28" height="0.28" fill="#fff"/><polygon points="5.61 28.11 5.75 28.11 5.75 27 5.61 27 5.61 27.28 5.61 27.56 5.61 27.83 5.33 27.83 5.33 28.11 5.05 28.11 4.78 28.11 4.5 28.11 4.5 28.25 5.61 28.25 5.61 28.11" fill="#fff"/><rect x="5.06" y="27.56" width="0.28" height="0.28" fill="#fff"/><rect x="4.78" y="27.28" width="0.28" height="0.28" fill="#fff"/><polygon points="4.5 22.25 4.5 22.39 4.78 22.39 5.05 22.39 5.33 22.39 5.33 22.67 5.61 22.67 5.61 22.94 5.61 23.22 5.61 23.5 5.75 23.5 5.75 22.39 5.61 22.39 5.61 22.25 4.5 22.25" fill="#fff"/><rect x="5.06" y="22.67" width="0.28" height="0.28" fill="#fff"/><rect x="4.78" y="22.94" width="0.28" height="0.28" fill="#fff"/><path d="M1.94,25.39H2.5v-.28H1.67v-.28H1.39V24H1.11v.83H.83v.28H0v.28H.83v.28h.28v.83h.28v-.83h.28v-.28Zm-.55,0H1.11v-.28h.28Z" fill="#fff"/><rect x="0.56" y="24.56" width="0.28" height="0.28" fill="#fff"/><rect x="0.28" y="24.28" width="0.28" height="0.28" fill="#fff"/><rect x="1.67" y="24.56" width="0.28" height="0.28" fill="#fff"/><rect x="1.94" y="24.28" width="0.28" height="0.28" fill="#fff"/><rect x="1.67" y="25.67" width="0.28" height="0.28" fill="#fff"/><rect x="1.94" y="25.94" width="0.28" height="0.28" fill="#fff"/><rect x="0.56" y="25.67" width="0.28" height="0.28" fill="#fff"/><rect x="0.28" y="25.94" width="0.28" height="0.28" fill="#fff"/><polygon points="5.61 34.11 5.75 34.11 5.75 33 5.61 33 5.61 33.28 5.61 33.56 5.61 33.83 5.33 33.83 5.33 34.11 5.05 34.11 4.78 34.11 4.5 34.11 4.5 34.25 5.61 34.25 5.61 34.11" fill="#fff"/><rect x="5.06" y="33.56" width="0.28" height="0.28" fill="#fff"/><rect x="4.78" y="33.28" width="0.28" height="0.28" fill="#fff"/><polygon points="4.5 28.25 4.5 28.39 4.78 28.39 5.05 28.39 5.33 28.39 5.33 28.67 5.61 28.67 5.61 28.94 5.61 29.22 5.61 29.5 5.75 29.5 5.75 28.39 5.61 28.39 5.61 28.25 4.5 28.25" fill="#fff"/><rect x="5.06" y="28.67" width="0.28" height="0.28" fill="#fff"/><rect x="4.78" y="28.94" width="0.28" height="0.28" fill="#fff"/><path d="M1.94,31.39H2.5v-.28H1.67v-.28H1.39V30H1.11v.83H.83v.28H0v.28H.83v.28h.28v.83h.28v-.83h.28v-.28Zm-.55,0H1.11v-.28h.28Z" fill="#fff"/><rect x="0.56" y="30.56" width="0.28" height="0.28" fill="#fff"/><rect x="0.28" y="30.28" width="0.28" height="0.28" fill="#fff"/><rect x="1.67" y="30.56" width="0.28" height="0.28" fill="#fff"/><rect x="1.94" y="30.28" width="0.28" height="0.28" fill="#fff"/><rect x="1.67" y="31.67" width="0.28" height="0.28" fill="#fff"/><rect x="1.94" y="31.94" width="0.28" height="0.28" fill="#fff"/><rect x="0.56" y="31.67" width="0.28" height="0.28" fill="#fff"/><rect x="0.28" y="31.94" width="0.28" height="0.28" fill="#fff"/><polygon points="5.61 40.11 5.75 40.11 5.75 39 5.61 39 5.61 39.28 5.61 39.56 5.61 39.83 5.33 39.83 5.33 40.11 5.05 40.11 4.78 40.11 4.5 40.11 4.5 40.25 5.61 40.25 5.61 40.11" fill="#fff"/><rect x="5.06" y="39.56" width="0.28" height="0.28" fill="#fff"/><rect x="4.78" y="39.28" width="0.28" height="0.28" fill="#fff"/><polygon points="4.5 34.25 4.5 34.39 4.78 34.39 5.05 34.39 5.33 34.39 5.33 34.67 5.61 34.67 5.61 34.94 5.61 35.22 5.61 35.5 5.75 35.5 5.75 34.39 5.61 34.39 5.61 34.25 4.5 34.25" fill="#fff"/><rect x="5.06" y="34.67" width="0.28" height="0.28" fill="#fff"/><rect x="4.78" y="34.94" width="0.28" height="0.28" fill="#fff"/><path d="M1.94,37.39H2.5v-.28H1.67v-.28H1.39V36H1.11v.83H.83v.28H0v.28H.83v.28h.28v.83h.28v-.83h.28v-.28Zm-.55,0H1.11v-.28h.28Z" fill="#fff"/><rect x="0.56" y="36.56" width="0.28" height="0.28" fill="#fff"/><rect x="0.28" y="36.28" width="0.28" height="0.28" fill="#fff"/><rect x="1.67" y="36.56" width="0.28" height="0.28" fill="#fff"/><rect x="1.94" y="36.28" width="0.28" height="0.28" fill="#fff"/><rect x="1.67" y="37.67" width="0.28" height="0.28" fill="#fff"/><rect x="1.94" y="37.94" width="0.28" height="0.28" fill="#fff"/><rect x="0.56" y="37.67" width="0.28" height="0.28" fill="#fff"/><rect x="0.28" y="37.94" width="0.28" height="0.28" fill="#fff"/><polygon points="5.61 46.11 5.75 46.11 5.75 45 5.61 45 5.61 45.28 5.61 45.56 5.61 45.83 5.33 45.83 5.33 46.11 5.05 46.11 4.78 46.11 4.5 46.11 4.5 46.25 5.61 46.25 5.61 46.11" fill="#fff"/><rect x="5.06" y="45.56" width="0.28" height="0.28" fill="#fff"/><rect x="4.78" y="45.28" width="0.28" height="0.28" fill="#fff"/><polygon points="4.5 40.25 4.5 40.39 4.78 40.39 5.05 40.39 5.33 40.39 5.33 40.67 5.61 40.67 5.61 40.94 5.61 41.22 5.61 41.5 5.75 41.5 5.75 40.39 5.61 40.39 5.61 40.25 4.5 40.25" fill="#fff"/><rect x="5.06" y="40.67" width="0.28" height="0.28" fill="#fff"/><rect x="4.78" y="40.94" width="0.28" height="0.28" fill="#fff"/><path d="M1.94,43.39H2.5v-.28H1.67v-.28H1.39V42H1.11v.83H.83v.28H0v.28H.83v.28h.28v.83h.28v-.83h.28v-.28Zm-.55,0H1.11v-.28h.28Z" fill="#fff"/><rect x="0.56" y="42.56" width="0.28" height="0.28" fill="#fff"/><rect x="0.28" y="42.28" width="0.28" height="0.28" fill="#fff"/><rect x="1.67" y="42.56" width="0.28" height="0.28" fill="#fff"/><rect x="1.94" y="42.28" width="0.28" height="0.28" fill="#fff"/><rect x="1.67" y="43.67" width="0.28" height="0.28" fill="#fff"/><rect x="1.94" y="43.94" width="0.28" height="0.28" fill="#fff"/><rect x="0.56" y="43.67" width="0.28" height="0.28" fill="#fff"/><rect x="0.28" y="43.94" width="0.28" height="0.28" fill="#fff"/><polygon points="5.61 52.11 5.75 52.11 5.75 51 5.61 51 5.61 51.28 5.61 51.56 5.61 51.83 5.33 51.83 5.33 52.11 5.05 52.11 4.78 52.11 4.5 52.11 4.5 52.25 5.61 52.25 5.61 52.11" fill="#fff"/><rect x="5.06" y="51.56" width="0.28" height="0.28" fill="#fff"/><rect x="4.78" y="51.28" width="0.28" height="0.28" fill="#fff"/><polygon points="4.5 46.25 4.5 46.39 4.78 46.39 5.05 46.39 5.33 46.39 5.33 46.67 5.61 46.67 5.61 46.94 5.61 47.22 5.61 47.5 5.75 47.5 5.75 46.39 5.61 46.39 5.61 46.25 4.5 46.25" fill="#fff"/><rect x="5.06" y="46.67" width="0.28" height="0.28" fill="#fff"/><rect x="4.78" y="46.94" width="0.28" height="0.28" fill="#fff"/><path d="M1.94,49.39H2.5v-.28H1.67v-.28H1.39V48H1.11v.83H.83v.28H0v.28H.83v.28h.28v.83h.28v-.83h.28v-.28Zm-.55,0H1.11v-.28h.28Z" fill="#fff"/><rect x="0.56" y="48.56" width="0.28" height="0.28" fill="#fff"/><rect x="0.28" y="48.28" width="0.28" height="0.28" fill="#fff"/><rect x="1.67" y="48.56" width="0.28" height="0.28" fill="#fff"/><rect x="1.94" y="48.28" width="0.28" height="0.28" fill="#fff"/><rect x="1.67" y="49.67" width="0.28" height="0.28" fill="#fff"/><rect x="1.94" y="49.94" width="0.28" height="0.28" fill="#fff"/><rect x="0.56" y="49.67" width="0.28" height="0.28" fill="#fff"/><rect x="0.28" y="49.94" width="0.28" height="0.28" fill="#fff"/><polygon points="4.5 52.25 4.5 52.39 4.78 52.39 5.05 52.39 5.33 52.39 5.33 52.67 5.61 52.67 5.61 52.94 5.61 53.22 5.61 53.5 5.75 53.5 5.75 52.39 5.61 52.39 5.61 52.25 4.5 52.25" fill="#fff"/><rect x="5.06" y="52.67" width="0.28" height="0.28" fill="#fff"/><rect x="4.78" y="52.94" width="0.28" height="0.28" fill="#fff"/><path d="M1.94,55.39H2.5v-.28H1.67v-.28H1.39V54H1.11v.83H.83v.28H0v.28H.83v.28h.28v.83h.28v-.83h.28v-.28Zm-.55,0H1.11v-.28h.28Z" fill="#fff"/><rect x="0.56" y="54.56" width="0.28" height="0.28" fill="#fff"/><rect x="0.28" y="54.28" width="0.28" height="0.28" fill="#fff"/><rect x="1.67" y="54.56" width="0.28" height="0.28" fill="#fff"/><rect x="1.94" y="54.28" width="0.28" height="0.28" fill="#fff"/><rect x="1.67" y="55.67" width="0.28" height="0.28" fill="#fff"/><rect x="1.94" y="55.94" width="0.28" height="0.28" fill="#fff"/><rect x="0.56" y="55.67" width="0.28" height="0.28" fill="#fff"/><rect x="0.28" y="55.94" width="0.28" height="0.28" fill="#fff"/></g></g></svg>