<svg id="Layer_1" xmlns="http://www.w3.org/2000/svg" viewBox="0 0 150 150"><g id="surface1"><path d="M75,0a74.78,74.78,0,1,0,74.78,74.78A74.87,74.87,0,0,0,75,0Zm0,5.16A69.63,69.63,0,1,1,5.32,74.78,69.7,69.7,0,0,1,75,5.16Zm0,10.31a59.31,59.31,0,1,0,36.61,12.65,2.58,2.58,0,0,0-3.18,4.06A54.16,54.16,0,1,1,75,20.63a54.59,54.59,0,0,1,7.89.57,2.58,2.58,0,0,0,.76-5.1A59.32,59.32,0,0,0,75,15.47Zm19.42,3.47a2.57,2.57,0,0,0-.76,5,55,55,0,0,1,6,2.61,2.68,2.68,0,0,0,1.18.28A2.57,2.57,0,0,0,101.91,22a56.41,56.41,0,0,0-6.53-2.86A2.51,2.51,0,0,0,94.37,18.94ZM75,41.26a5.16,5.16,0,1,0,5.15,5.16A5.15,5.15,0,0,0,75,41.26ZM69.89,56.73a2.53,2.53,0,0,0-2.48,2.58,2.36,2.36,0,0,0,2.48,2.58h2.48V98H67.31a2.53,2.53,0,0,0-2.48,2.58,2.36,2.36,0,0,0,2.48,2.58H82.68a2.58,2.58,0,0,0,0-5.16H77.52V61.89H80.1a2.58,2.58,0,0,0,0-5.16ZM28.53,72.2A2.59,2.59,0,0,0,26,74.78v5.16a2.58,2.58,0,1,0,5.16,0V74.78A2.59,2.59,0,0,0,28.53,72.2Zm12.89,0a2.59,2.59,0,0,0-2.58,2.58v5.16a2.58,2.58,0,0,0,5.16,0V74.78A2.59,2.59,0,0,0,41.42,72.2Zm12.9,0a2.59,2.59,0,0,0-2.58,2.58v5.16a2.58,2.58,0,1,0,5.15,0V74.78A2.58,2.58,0,0,0,54.32,72.2Zm41.25,0A2.58,2.58,0,0,0,93,74.78v5.16a2.58,2.58,0,1,0,5.15,0V74.78A2.58,2.58,0,0,0,95.57,72.2Zm12.9,0a2.59,2.59,0,0,0-2.58,2.58v5.16a2.58,2.58,0,0,0,5.16,0V74.78A2.59,2.59,0,0,0,108.47,72.2Zm12.89,0a2.59,2.59,0,0,0-2.58,2.58v5.16a2.58,2.58,0,0,0,5.16,0V74.78A2.59,2.59,0,0,0,121.36,72.2Z" fill="#161616"/></g></svg>