<svg id="Layer_1" xmlns="http://www.w3.org/2000/svg" viewBox="0 0 150 150"><g id="surface1"><path d="M97.34,0a2.47,2.47,0,0,0-1.76.73l-72.5,72.5a2.5,2.5,0,0,0,0,3.54l72.5,72.5a2.5,2.5,0,0,0,3.53,0l10-10a2.5,2.5,0,0,0,0-3.54L48.38,75l60.73-60.73a2.5,2.5,0,0,0,0-3.54l-10-10A2.49,2.49,0,0,0,97.34,0Zm0,6,6.47,6.46L43.08,73.23a2.5,2.5,0,0,0,0,3.54l60.73,60.73L97.34,144l-69-69Zm19,11.46a2.5,2.5,0,0,0-1.77,4.27l3.54,3.53a2.47,2.47,0,0,0,3.53,0,2.49,2.49,0,0,0,0-3.53l-3.53-3.54A2.51,2.51,0,0,0,116.31,17.5Zm-8.84,8.84a2.5,2.5,0,0,0-1.77,4.27l3.54,3.53a2.5,2.5,0,0,0,3.53-3.53l-3.53-3.54A2.49,2.49,0,0,0,107.47,26.34Zm-8.84,8.84a2.5,2.5,0,0,0-1.77,4.26L100.4,43a2.51,2.51,0,0,0,3.54,0,2.52,2.52,0,0,0,0-3.54l-3.54-3.53A2.49,2.49,0,0,0,98.63,35.18ZM89.79,44a2.52,2.52,0,0,0-1.77.74,2.49,2.49,0,0,0,0,3.53l3.54,3.55a2.54,2.54,0,0,0,3.54,0,2.53,2.53,0,0,0,0-3.55l-3.54-3.53A2.52,2.52,0,0,0,89.79,44ZM81,52.85a2.52,2.52,0,0,0-1.77.74,2.49,2.49,0,0,0,0,3.53l3.54,3.54a2.47,2.47,0,0,0,3.53,0,2.48,2.48,0,0,0,0-3.54l-3.53-3.53A2.5,2.5,0,0,0,81,52.85Zm-8.84,8.84a2.47,2.47,0,0,0-1.76.73,2.49,2.49,0,0,0,0,3.55l3.53,3.52A2.5,2.5,0,1,0,77.42,66l-3.54-3.55A2.49,2.49,0,0,0,72.11,61.69Zm-9,10.61a2.5,2.5,0,0,0,0,5h5a2.5,2.5,0,0,0,0-5Zm12.59,7.47a2.46,2.46,0,0,0-1.77.74L70.35,84a2.49,2.49,0,0,0,0,3.55,2.45,2.45,0,0,0,1.76.73,2.52,2.52,0,0,0,1.77-.73L77.42,84a2.5,2.5,0,0,0-1.77-4.26Zm8.84,8.83a2.5,2.5,0,0,0-1.77.74l-3.54,3.54a2.49,2.49,0,0,0,0,3.53,2.49,2.49,0,0,0,3.54,0l3.53-3.53a2.51,2.51,0,0,0-1.76-4.28Zm8.84,8.85a2.52,2.52,0,0,0-1.77.72L88,101.72a2.5,2.5,0,1,0,3.54,3.53l3.54-3.53a2.5,2.5,0,0,0-1.77-4.27Zm8.83,8.84a2.47,2.47,0,0,0-1.76.73l-3.54,3.54a2.5,2.5,0,0,0,1.77,4.26,2.47,2.47,0,0,0,1.77-.73l3.54-3.53a2.5,2.5,0,0,0-1.78-4.27Zm8.85,8.84a2.49,2.49,0,0,0-1.77.73l-3.54,3.53a2.52,2.52,0,0,0,0,3.54,2.51,2.51,0,0,0,3.54,0l3.53-3.54a2.5,2.5,0,0,0-1.76-4.26Zm8.83,8.83a2.48,2.48,0,0,0-1.76.74l-3.54,3.53a2.5,2.5,0,0,0,0,3.54,2.51,2.51,0,0,0,3.54,0l3.53-3.54a2.51,2.51,0,0,0-1.77-4.27Z" fill="#161616"/></g></svg>