<svg id="Layer_1" xmlns="http://www.w3.org/2000/svg" viewBox="0 0 150 150">
    <g id="surface1">
        <path
            d="M75.19,1.29a5.37,5.37,0,0,0-3.68,1.43l-69.57,59A5.35,5.35,0,0,0,.29,65.56V74.2a5.35,5.35,0,0,0,3.25,4.92,5.28,5.28,0,0,0,5.67-1L11,76.67V142a5.36,5.36,0,0,0,5.35,5.35H53.76A5.36,5.36,0,0,0,59.11,142V99.18H91.19V142a5.35,5.35,0,0,0,5.34,5.35h12.26a5.27,5.27,0,0,0,3.78-1.57l25.17-25.16a5.33,5.33,0,0,0,1.57-3.79V79.26L141,80.72a5.34,5.34,0,0,0,3.7,1.5,5.52,5.52,0,0,0,2.1-.43A5.34,5.34,0,0,0,150,76.87V68.24a5.45,5.45,0,0,0-1.72-3.94L78.85,2.78A5.4,5.4,0,0,0,75.19,1.29Zm0,5.43,69.42,61.52-.08,8.55L78.64,18.5a5.38,5.38,0,0,0-7-.08L5.64,74.2l-.13-8.52L75,6.75l.15,0ZM75.1,22.51l59,52.12a2.5,2.5,0,0,0-.09.49v40.1H112.57a5.35,5.35,0,0,0-5.34,5.35V142H96.53V99.18a5.35,5.35,0,0,0-5.34-5.35H59.11a5.36,5.36,0,0,0-5.35,5.35V142H16.33V72.44c0-.08,0-.15,0-.25Zm.05,25.87a16,16,0,1,0,16,16A16.06,16.06,0,0,0,75.15,48.38Zm0,5.35a10.7,10.7,0,1,1-10.7,10.69A10.7,10.7,0,0,1,75.15,53.73Zm37.42,66.84h17.61l-17.61,17.6Zm-90.89,5.34A2.69,2.69,0,0,0,19,128.59v5.34a2.68,2.68,0,1,0,5.35,0v-5.34A2.68,2.68,0,0,0,21.68,125.91Zm13.36,0a2.68,2.68,0,0,0-2.67,2.68v5.34a2.68,2.68,0,1,0,5.35,0v-5.34A2.68,2.68,0,0,0,35,125.91Zm13.37,0a2.68,2.68,0,0,0-2.67,2.68v5.34a2.68,2.68,0,1,0,5.35,0v-5.34A2.69,2.69,0,0,0,48.41,125.91Z"
            fill="#161616" />
    </g>
</svg>