<svg id="Layer_1" xmlns="http://www.w3.org/2000/svg" viewBox="0 0 150 150"><g id="surface1"><path d="M75.47,0A30,30,0,0,0,45.93,25H13a7.52,7.52,0,0,0-7.5,7.5v110A7.52,7.52,0,0,0,13,150H138a7.52,7.52,0,0,0,7.5-7.5V32.5A7.52,7.52,0,0,0,138,25H105A30,30,0,0,0,75.47,0Zm0,5A25,25,0,0,1,100,25H51A25,25,0,0,1,75.47,5ZM13,30h32.5v5.46a7.5,7.5,0,1,0,5,0V30h50v5.46a7.5,7.5,0,1,0,5,0V30H138a2.5,2.5,0,0,1,2.5,2.5v110A2.5,2.5,0,0,1,138,145H13a2.51,2.51,0,0,1-2.5-2.5V32.5A2.51,2.51,0,0,1,13,30ZM48,40a2.5,2.5,0,1,1-2.5,2.5A2.5,2.5,0,0,1,48,40Zm55,0a2.5,2.5,0,1,1-2.5,2.5A2.5,2.5,0,0,1,103,40ZM55.67,55a5.42,5.42,0,0,0-5.29,5.41v54.18a5.4,5.4,0,0,0,8,4.76l50.17-27.09a5.42,5.42,0,0,0,0-9.52L58.35,55.65A5.44,5.44,0,0,0,55.67,55Zm3.44,6.75L84.79,75.62l-6.9,8Zm-3.73,3.33,29.41,34.3L59.11,113.25,73.36,96.61a2.47,2.47,0,0,0-.26-3.51,2.5,2.5,0,0,0-3.53.26L55.38,109.93Zm33.91,13,16.85,9.1a.39.39,0,0,1,0,.7L89.29,97,81.18,87.5ZM18,130a2.49,2.49,0,0,0-2.5,2.5v5a2.5,2.5,0,0,0,5,0v-5A2.49,2.49,0,0,0,18,130Zm12.5,0a2.49,2.49,0,0,0-2.5,2.5v5a2.5,2.5,0,0,0,5,0v-5A2.49,2.49,0,0,0,30.47,130ZM43,130a2.49,2.49,0,0,0-2.5,2.5v5a2.5,2.5,0,0,0,5,0v-5A2.49,2.49,0,0,0,43,130Zm12.5,0a2.49,2.49,0,0,0-2.5,2.5v5a2.5,2.5,0,0,0,5,0v-5A2.49,2.49,0,0,0,55.47,130ZM68,130a2.49,2.49,0,0,0-2.5,2.5v5a2.5,2.5,0,0,0,5,0v-5A2.49,2.49,0,0,0,68,130Zm15,0a2.49,2.49,0,0,0-2.5,2.5v5a2.5,2.5,0,0,0,5,0v-5A2.49,2.49,0,0,0,83,130Zm12.5,0a2.49,2.49,0,0,0-2.5,2.5v5a2.5,2.5,0,0,0,5,0v-5A2.49,2.49,0,0,0,95.47,130Zm12.5,0a2.49,2.49,0,0,0-2.5,2.5v5a2.5,2.5,0,0,0,5,0v-5A2.49,2.49,0,0,0,108,130Zm12.5,0a2.49,2.49,0,0,0-2.5,2.5v5a2.5,2.5,0,0,0,5,0v-5A2.49,2.49,0,0,0,120.47,130Zm12.5,0a2.49,2.49,0,0,0-2.5,2.5v5a2.5,2.5,0,0,0,5,0v-5A2.49,2.49,0,0,0,133,130Z" fill="#161616"/></g></svg>