<svg id="Layer_1" xmlns="http://www.w3.org/2000/svg" viewBox="0 0 150 150"><g id="surface1"><path d="M77.25,1a7.48,7.48,0,0,0-4.67,1.65L69.1,5.44A71.89,71.89,0,0,1,28.75,21.11l-9,.61a7.48,7.48,0,0,0-7,7.91l1.71,28.8a101.6,101.6,0,0,0,34.87,69.76l23,20a7.52,7.52,0,0,0,9.81,0l23-20A101.64,101.64,0,0,0,140,58.4l1.71-28.76a7.49,7.49,0,0,0-7-7.92l-9-.61A71.89,71.89,0,0,1,85.41,5.44L81.93,2.65A7.49,7.49,0,0,0,77.25,1Zm0,5a2.56,2.56,0,0,1,1.56.55L82.3,9.33a76.85,76.85,0,0,0,43.13,16.76l9,.6a2.52,2.52,0,0,1,2.33,2.65L135,58.07a96.52,96.52,0,0,1-17.91,49.63v-.93a2.49,2.49,0,0,0-5,0v5a2.47,2.47,0,0,0,.6,1.58,99.63,99.63,0,0,1-10.86,11.09l-23,20a2.5,2.5,0,0,1-3.27,0l-23-20a98.78,98.78,0,0,1-10.86-11.09,2.49,2.49,0,0,0,.6-1.58v-5a2.49,2.49,0,0,0-5,0v.92A96.44,96.44,0,0,1,19.47,58.1L17.74,29.33a2.51,2.51,0,0,1,2.33-2.64l9-.6A76.93,76.93,0,0,0,72.21,9.32L75.7,6.54A2.51,2.51,0,0,1,77.25,6Zm0,7.13a5,5,0,0,0-2.85.9L68,18.5A72.31,72.31,0,0,1,31.34,31.41l-1.6.11a2.49,2.49,0,0,0,.16,5h.17l1.61-.12a77.29,77.29,0,0,0,39.17-13.8l6.4-4.47,6.41,4.47a76.89,76.89,0,0,0,22.63,10.87,2.49,2.49,0,1,0,1.39-4.78A72,72,0,0,1,86.52,18.5L80.12,14A4.94,4.94,0,0,0,77.25,13.12ZM117.47,30.8a2.5,2.5,0,0,0-.73,4.94c2,.29,4.06.5,6.08.64l1.48.11h.16a2.5,2.5,0,0,0,.18-5l-1.48-.09C121.26,31.28,119.35,31.08,117.47,30.8Zm-40,10.09A14.92,14.92,0,0,0,67.8,67.38L63.23,84.46A5,5,0,0,0,68,90.73H86.47a5,5,0,0,0,4.81-6.27l-4.61-17a14.93,14.93,0,0,0-9.24-26.53Zm-.15,5a9.79,9.79,0,0,1,6.25,2.23,9.92,9.92,0,0,1,0,15.45,4.94,4.94,0,0,0-1.63,5.11l4.58,17.09H68l4.58-17.09A4.91,4.91,0,0,0,71,63.56,10,10,0,0,1,75.07,46.1,11.13,11.13,0,0,1,77.28,45.87Zm-25,58.41a2.48,2.48,0,0,0-2.49,2.49v5a2.49,2.49,0,0,0,5,0v-5A2.49,2.49,0,0,0,52.33,104.28Zm12.46,0a2.48,2.48,0,0,0-2.49,2.49v5a2.5,2.5,0,0,0,5,0v-5A2.49,2.49,0,0,0,64.79,104.28Zm12.46,0a2.48,2.48,0,0,0-2.49,2.49v5a2.5,2.5,0,0,0,5,0v-5A2.49,2.49,0,0,0,77.25,104.28Zm12.47,0a2.49,2.49,0,0,0-2.5,2.49v5a2.5,2.5,0,0,0,5,0v-5A2.49,2.49,0,0,0,89.72,104.28Zm12.46,0a2.49,2.49,0,0,0-2.5,2.49v5a2.5,2.5,0,0,0,5,0v-5A2.49,2.49,0,0,0,102.18,104.28Z" fill="#161616"/></g></svg>