<svg id="Layer_1" xmlns="http://www.w3.org/2000/svg" viewBox="0 0 150 150"><g id="surface1"><path d="M75,.55a74.73,74.73,0,1,0,74.73,74.72A74.81,74.81,0,0,0,75,.55ZM75,5.7A69.58,69.58,0,1,1,5.43,75.27,69.65,69.65,0,0,1,75,5.7ZM73.87,16A59.25,59.25,0,0,0,33.09,117.18a2.58,2.58,0,1,0,3.65-3.65A54.12,54.12,0,0,1,83.61,21.84a2.58,2.58,0,1,0,.81-5.09A58.49,58.49,0,0,0,73.87,16Zm20.87,3.55a2.58,2.58,0,0,0-.8,5,55.47,55.47,0,0,1,5.42,2.36,2.51,2.51,0,0,0,1.16.28,2.58,2.58,0,0,0,1.15-4.88,59.91,59.91,0,0,0-5.92-2.59A2.77,2.77,0,0,0,94.74,19.58Zm14.88,8.47a2.65,2.65,0,0,0-1.73,1,2.57,2.57,0,0,0,.45,3.61,54.26,54.26,0,0,1,4.92,80.9,2.59,2.59,0,0,0,0,3.66,2.6,2.6,0,0,0,3.65,0,59.37,59.37,0,0,0,0-83.83,62.61,62.61,0,0,0-5.39-4.78A2.64,2.64,0,0,0,109.62,28.05ZM74.81,39.88a2.6,2.6,0,0,0-2.39,1.61L64.63,60.58,43.46,62.51a2.57,2.57,0,0,0-2.22,1.77A2.62,2.62,0,0,0,42,67L58,81,53.07,101a2.58,2.58,0,0,0,3.86,2.81L74.81,92.79l17.88,11.06a2.59,2.59,0,0,0,1.35.37,2.53,2.53,0,0,0,1.51-.48,2.57,2.57,0,0,0,1-2.7L91.64,81l16-14a2.6,2.6,0,0,0,.76-2.74,2.57,2.57,0,0,0-2.22-1.77L85,60.58l-7.8-19.09A2.58,2.58,0,0,0,74.81,39.88Zm0,9.4L80.8,64A2.61,2.61,0,0,0,83,65.57L99.7,67.09l-12.63,11a2.6,2.6,0,0,0-.81,2.57l3.79,15.44L76.17,87.55a2.69,2.69,0,0,0-1.36-.38,2.6,2.6,0,0,0-1.35.38L59.58,96.14,63.36,80.7a2.63,2.63,0,0,0-.8-2.57l-12.64-11,16.75-1.52A2.58,2.58,0,0,0,68.81,64ZM50.2,117.52a2.56,2.56,0,0,0-2.55,1.27l-2.58,4.47a2.57,2.57,0,0,0,.94,3.51,2.61,2.61,0,0,0,1.29.35,2.54,2.54,0,0,0,2.22-1.29l2.58-4.47a2.56,2.56,0,0,0-.94-3.52A2.66,2.66,0,0,0,50.2,117.52Zm49.6,0a2.57,2.57,0,0,0-1.9,3.85l2.58,4.46a2.54,2.54,0,0,0,2.22,1.29,2.5,2.5,0,0,0,1.29-.35,2.56,2.56,0,0,0,.94-3.51l-2.58-4.46A2.58,2.58,0,0,0,99.8,117.52Zm-38.16,5a2.6,2.6,0,0,0-2.14,1.89l-1.33,5a2.58,2.58,0,1,0,5,1.32l1.34-5a2.59,2.59,0,0,0-2.85-3.22Zm26.73,0a2.63,2.63,0,0,0-1,.07,2.58,2.58,0,0,0-1.82,3.15l1.34,5a2.58,2.58,0,1,0,5-1.32l-1.33-5A2.6,2.6,0,0,0,88.37,122.54ZM75,124.23a2.58,2.58,0,0,0-2.58,2.58V132a2.58,2.58,0,1,0,5.16,0v-5.15A2.58,2.58,0,0,0,75,124.23Z" fill="#161616"/></g></svg>